ISO-10303-21;
HEADER;

/* File generated by Shapr3D Version 26.121.0.11316 */

FILE_DESCRIPTION(('HOOPS Exchange Step'),'2;1');

FILE_NAME('/Users/khilli/Library/Containers/com.shapr3d.shapr/Data/tmp/export/temp_export',
'2026-07-28T12:48:40+01:00',
('khilli'),
('Shapr3D Limited'),
'HOOPS Exchange 2026.3',
'Shapr3D',
'Authorized');

FILE_SCHEMA( ('AP242_MANAGED_MODEL_BASED_3D_ENGINEERING_MIM_LF {1 0 10303 442 1 1 4}') );

ENDSEC;

DATA;
#3=(NAMED_UNIT(*)PLANE_ANGLE_UNIT()SI_UNIT($,.RADIAN.));
#4=PLANE_ANGLE_MEASURE_WITH_UNIT(PLANE_ANGLE_MEASURE(0.0174532925),#3);
#5=(CONVERSION_BASED_UNIT('DEGREE',#4)NAMED_UNIT(#6)PLANE_ANGLE_UNIT());
#6=DIMENSIONAL_EXPONENTS(0.,0.,0.,0.,0.,0.,0.);
#7=(NAMED_UNIT(*)SI_UNIT($,.STERADIAN.)SOLID_ANGLE_UNIT());
#8=(LENGTH_UNIT()NAMED_UNIT(*)SI_UNIT(.MILLI.,.METRE.));
#9=UNCERTAINTY_MEASURE_WITH_UNIT(LENGTH_MEASURE(1.000000E-05),#8,'DISTANCE_ACCURACY_VALUE','Maximum Tolerance applied to model');
#10=(GEOMETRIC_REPRESENTATION_CONTEXT(3)GLOBAL_UNCERTAINTY_ASSIGNED_CONTEXT((#9))GLOBAL_UNIT_ASSIGNED_CONTEXT((#8,#5,#7))REPRESENTATION_CONTEXT('','root'));
#12=CARTESIAN_POINT('',(0.,0.,0.));
#13=DIRECTION('',(0.,0.,1.));
#14=DIRECTION('',(1.,0.,0.));
#15=AXIS2_PLACEMENT_3D('TS3D_PRODUCT_CSYS',#12,#13,#14);
#27=CARTESIAN_POINT('',(100.,229.,22.));
#28=DIRECTION('',(0.,0.,-1.));
#29=DIRECTION('',(-1.,0.,0.));
#30=AXIS2_PLACEMENT_3D('',#27,#28,#29);
#31=CYLINDRICAL_SURFACE('',#30,60.);
#32=CARTESIAN_POINT('',(40.,229.,2.));
#33=VERTEX_POINT('',#32);
#34=CARTESIAN_POINT('',(40.,229.,22.));
#35=VERTEX_POINT('',#34);
#36=CARTESIAN_POINT('',(40.,229.,2.));
#37=DIRECTION('',(-0.,-0.,1.));
#38=VECTOR('',#37,20.);
#39=LINE('',#36,#38);
#40=EDGE_CURVE('',#33,#35,#39,.T.);
#41=ORIENTED_EDGE('',*,*,#40,.T.);
#42=CARTESIAN_POINT('',(160.,229.,22.));
#43=VERTEX_POINT('',#42);
#44=CARTESIAN_POINT('',(100.,229.,22.));
#45=DIRECTION('',(0.,0.,1.));
#46=DIRECTION('',(1.,0.,-0.));
#47=AXIS2_PLACEMENT_3D('',#44,#45,#46);
#48=CIRCLE('',#47,60.);
#49=EDGE_CURVE('',#43,#35,#48,.T.);
#50=ORIENTED_EDGE('',*,*,#49,.F.);
#51=CARTESIAN_POINT('',(100.,229.,22.));
#52=DIRECTION('',(0.,0.,1.));
#53=DIRECTION('',(1.,0.,-0.));
#54=AXIS2_PLACEMENT_3D('',#51,#52,#53);
#55=CIRCLE('',#54,60.);
#56=EDGE_CURVE('',#35,#43,#55,.T.);
#57=ORIENTED_EDGE('',*,*,#56,.F.);
#58=ORIENTED_EDGE('',*,*,#40,.F.);
#59=CARTESIAN_POINT('',(160.,229.,2.));
#60=VERTEX_POINT('',#59);
#61=CARTESIAN_POINT('',(100.,229.,2.));
#62=DIRECTION('',(0.,0.,1.));
#63=DIRECTION('',(1.,0.,-0.));
#64=AXIS2_PLACEMENT_3D('',#61,#62,#63);
#65=CIRCLE('',#64,60.);
#66=EDGE_CURVE('',#33,#60,#65,.T.);
#67=ORIENTED_EDGE('',*,*,#66,.T.);
#68=CARTESIAN_POINT('',(100.,229.,2.));
#69=DIRECTION('',(0.,0.,1.));
#70=DIRECTION('',(1.,0.,-0.));
#71=AXIS2_PLACEMENT_3D('',#68,#69,#70);
#72=CIRCLE('',#71,60.);
#73=EDGE_CURVE('',#60,#33,#72,.T.);
#74=ORIENTED_EDGE('',*,*,#73,.T.);
#75=EDGE_LOOP('',(#41,#50,#57,#58,#67,#74));
#76=FACE_BOUND('',#75,.T.);
#77=ADVANCED_FACE('',(#76),#31,.T.);
#78=CARTESIAN_POINT('',(0.,-71.,22.));
#79=DIRECTION('',(0.,0.,1.));
#80=DIRECTION('',(1.,0.,0.));
#81=AXIS2_PLACEMENT_3D('',#78,#79,#80);
#82=PLANE('',#81);
#83=CARTESIAN_POINT('',(155.,229.,22.));
#84=VERTEX_POINT('',#83);
#85=CARTESIAN_POINT('',(100.,284.,22.));
#86=VERTEX_POINT('',#85);
#87=CARTESIAN_POINT('',(100.,229.,22.));
#88=DIRECTION('',(0.,-0.,1.));
#89=DIRECTION('',(0.,1.,0.));
#90=AXIS2_PLACEMENT_3D('',#87,#88,#89);
#91=CIRCLE('',#90,55.);
#92=EDGE_CURVE('',#84,#86,#91,.T.);
#93=ORIENTED_EDGE('',*,*,#92,.F.);
#94=CARTESIAN_POINT('',(100.,229.,22.));
#95=DIRECTION('',(0.,-0.,1.));
#96=DIRECTION('',(0.,1.,0.));
#97=AXIS2_PLACEMENT_3D('',#94,#95,#96);
#98=CIRCLE('',#97,55.);
#99=EDGE_CURVE('',#86,#84,#98,.T.);
#100=ORIENTED_EDGE('',*,*,#99,.F.);
#101=EDGE_LOOP('',(#93,#100));
#102=FACE_BOUND('',#101,.T.);
#103=ORIENTED_EDGE('',*,*,#49,.T.);
#104=ORIENTED_EDGE('',*,*,#56,.T.);
#105=EDGE_LOOP('',(#103,#104));
#106=FACE_BOUND('',#105,.T.);
#107=ADVANCED_FACE('',(#102,#106),#82,.T.);
#108=CARTESIAN_POINT('',(0.,-71.,2.));
#109=DIRECTION('',(0.,0.,1.));
#110=DIRECTION('',(1.,0.,0.));
#111=AXIS2_PLACEMENT_3D('',#108,#109,#110);
#112=PLANE('',#111);
#113=CARTESIAN_POINT('',(105.,229.,2.));
#114=VERTEX_POINT('',#113);
#115=CARTESIAN_POINT('',(100.,229.,2.));
#116=DIRECTION('',(0.,0.,1.));
#117=DIRECTION('',(1.,0.,-0.));
#118=AXIS2_PLACEMENT_3D('',#115,#116,#117);
#119=CIRCLE('',#118,5.);
#120=EDGE_CURVE('',#114,#114,#119,.T.);
#121=ORIENTED_EDGE('',*,*,#120,.T.);
#122=EDGE_LOOP('',(#121));
#123=FACE_BOUND('',#122,.T.);
#124=ORIENTED_EDGE('',*,*,#66,.F.);
#125=ORIENTED_EDGE('',*,*,#73,.F.);
#126=EDGE_LOOP('',(#124,#125));
#127=FACE_BOUND('',#126,.T.);
#128=ADVANCED_FACE('',(#123,#127),#112,.F.);
#129=CARTESIAN_POINT('',(100.,229.,3.));
#130=DIRECTION('',(0.,0.,1.));
#131=DIRECTION('',(1.,0.,-0.));
#132=AXIS2_PLACEMENT_3D('',#129,#130,#131);
#133=CYLINDRICAL_SURFACE('',#132,55.);
#134=CARTESIAN_POINT('',(155.,229.,3.));
#135=VERTEX_POINT('',#134);
#136=CARTESIAN_POINT('',(155.,229.,22.));
#137=DIRECTION('',(-0.,-0.,-1.));
#138=VECTOR('',#137,19.);
#139=LINE('',#136,#138);
#140=EDGE_CURVE('',#84,#135,#139,.T.);
#141=ORIENTED_EDGE('',*,*,#140,.F.);
#142=ORIENTED_EDGE('',*,*,#92,.T.);
#143=ORIENTED_EDGE('',*,*,#99,.T.);
#144=ORIENTED_EDGE('',*,*,#140,.T.);
#145=CARTESIAN_POINT('',(100.,284.,3.));
#146=VERTEX_POINT('',#145);
#147=CARTESIAN_POINT('',(100.,229.,3.));
#148=DIRECTION('',(0.,-0.,1.));
#149=DIRECTION('',(0.,1.,0.));
#150=AXIS2_PLACEMENT_3D('',#147,#148,#149);
#151=CIRCLE('',#150,55.);
#152=EDGE_CURVE('',#146,#135,#151,.T.);
#153=ORIENTED_EDGE('',*,*,#152,.F.);
#154=CARTESIAN_POINT('',(100.,229.,3.));
#155=DIRECTION('',(0.,-0.,1.));
#156=DIRECTION('',(0.,1.,0.));
#157=AXIS2_PLACEMENT_3D('',#154,#155,#156);
#158=CIRCLE('',#157,55.);
#159=EDGE_CURVE('',#135,#146,#158,.T.);
#160=ORIENTED_EDGE('',*,*,#159,.F.);
#161=EDGE_LOOP('',(#141,#142,#143,#144,#153,#160));
#162=FACE_BOUND('',#161,.T.);
#163=ADVANCED_FACE('',(#162),#133,.F.);
#164=CARTESIAN_POINT('',(0.,-71.,3.));
#165=DIRECTION('',(0.,0.,1.));
#166=DIRECTION('',(0.,1.,0.));
#167=AXIS2_PLACEMENT_3D('',#164,#165,#166);
#168=PLANE('',#167);
#169=CARTESIAN_POINT('',(105.,229.,3.));
#170=VERTEX_POINT('',#169);
#171=CARTESIAN_POINT('',(100.,234.,3.));
#172=VERTEX_POINT('',#171);
#173=CARTESIAN_POINT('',(100.,229.,3.));
#174=DIRECTION('',(0.,-0.,1.));
#175=DIRECTION('',(0.,1.,0.));
#176=AXIS2_PLACEMENT_3D('',#173,#174,#175);
#177=CIRCLE('',#176,5.);
#178=EDGE_CURVE('',#170,#172,#177,.T.);
#179=ORIENTED_EDGE('',*,*,#178,.F.);
#180=CARTESIAN_POINT('',(100.,229.,3.));
#181=DIRECTION('',(0.,-0.,1.));
#182=DIRECTION('',(0.,1.,0.));
#183=AXIS2_PLACEMENT_3D('',#180,#181,#182);
#184=CIRCLE('',#183,5.);
#185=EDGE_CURVE('',#172,#170,#184,.T.);
#186=ORIENTED_EDGE('',*,*,#185,.F.);
#187=EDGE_LOOP('',(#179,#186));
#188=FACE_BOUND('',#187,.T.);
#189=ORIENTED_EDGE('',*,*,#152,.T.);
#190=ORIENTED_EDGE('',*,*,#159,.T.);
#191=EDGE_LOOP('',(#189,#190));
#192=FACE_BOUND('',#191,.T.);
#193=ADVANCED_FACE('',(#188,#192),#168,.T.);
#194=CARTESIAN_POINT('',(100.,229.,-17.));
#195=DIRECTION('',(0.,0.,1.));
#196=DIRECTION('',(1.,0.,-0.));
#197=AXIS2_PLACEMENT_3D('',#194,#195,#196);
#198=CYLINDRICAL_SURFACE('',#197,5.);
#199=CARTESIAN_POINT('',(105.,229.,3.));
#200=DIRECTION('',(-0.,-0.,-1.));
#201=VECTOR('',#200,1.);
#202=LINE('',#199,#201);
#203=EDGE_CURVE('',#170,#114,#202,.T.);
#204=ORIENTED_EDGE('',*,*,#203,.F.);
#205=ORIENTED_EDGE('',*,*,#178,.T.);
#206=ORIENTED_EDGE('',*,*,#185,.T.);
#207=ORIENTED_EDGE('',*,*,#203,.T.);
#208=ORIENTED_EDGE('',*,*,#120,.F.);
#209=EDGE_LOOP('',(#204,#205,#206,#207,#208));
#210=FACE_BOUND('',#209,.T.);
#211=ADVANCED_FACE('',(#210),#198,.F.);
#212=CLOSED_SHELL('',(#77,#107,#128,#163,#193,#211));
#213=MANIFOLD_SOLID_BREP('Body 03',#212);
#214=COLOUR_RGB('',0.627451003,0.627451003,0.643137276);
#215=FILL_AREA_STYLE_COLOUR('',#214);
#216=FILL_AREA_STYLE('',(#215));
#217=SURFACE_STYLE_FILL_AREA(#216);
#218=SURFACE_SIDE_STYLE('',(#217));
#219=SURFACE_STYLE_USAGE(.BOTH.,#218);
#220=PRESENTATION_STYLE_ASSIGNMENT((#219));
#26=STYLED_ITEM('',(#220),#213);
#222=CARTESIAN_POINT('',(100.,100.,1.));
#223=DIRECTION('',(0.,0.,-1.));
#224=DIRECTION('',(-1.,0.,0.));
#225=AXIS2_PLACEMENT_3D('',#222,#223,#224);
#226=CYLINDRICAL_SURFACE('',#225,5.);
#227=CARTESIAN_POINT('',(95.,100.,0.));
#228=VERTEX_POINT('',#227);
#229=CARTESIAN_POINT('',(95.,100.,2.));
#230=VERTEX_POINT('',#229);
#231=CARTESIAN_POINT('',(95.,100.,0.));
#232=DIRECTION('',(-0.,-0.,1.));
#233=VECTOR('',#232,2.);
#234=LINE('',#231,#233);
#235=EDGE_CURVE('',#228,#230,#234,.T.);
#236=ORIENTED_EDGE('',*,*,#235,.F.);
#237=CARTESIAN_POINT('',(105.,100.,0.));
#238=VERTEX_POINT('',#237);
#239=CARTESIAN_POINT('',(100.,100.,0.));
#240=DIRECTION('',(0.,0.,1.));
#241=DIRECTION('',(1.,0.,-0.));
#242=AXIS2_PLACEMENT_3D('',#239,#240,#241);
#243=CIRCLE('',#242,5.);
#244=EDGE_CURVE('',#238,#228,#243,.T.);
#245=ORIENTED_EDGE('',*,*,#244,.F.);
#246=CARTESIAN_POINT('',(100.,100.,0.));
#247=DIRECTION('',(0.,0.,1.));
#248=DIRECTION('',(1.,0.,-0.));
#249=AXIS2_PLACEMENT_3D('',#246,#247,#248);
#250=CIRCLE('',#249,5.);
#251=EDGE_CURVE('',#228,#238,#250,.T.);
#252=ORIENTED_EDGE('',*,*,#251,.F.);
#253=ORIENTED_EDGE('',*,*,#235,.T.);
#254=CARTESIAN_POINT('',(105.,100.,2.));
#255=VERTEX_POINT('',#254);
#256=CARTESIAN_POINT('',(100.,100.,2.));
#257=DIRECTION('',(0.,0.,1.));
#258=DIRECTION('',(1.,0.,-0.));
#259=AXIS2_PLACEMENT_3D('',#256,#257,#258);
#260=CIRCLE('',#259,5.);
#261=EDGE_CURVE('',#230,#255,#260,.T.);
#262=ORIENTED_EDGE('',*,*,#261,.T.);
#263=CARTESIAN_POINT('',(100.,100.,2.));
#264=DIRECTION('',(0.,0.,1.));
#265=DIRECTION('',(1.,0.,-0.));
#266=AXIS2_PLACEMENT_3D('',#263,#264,#265);
#267=CIRCLE('',#266,5.);
#268=EDGE_CURVE('',#255,#230,#267,.T.);
#269=ORIENTED_EDGE('',*,*,#268,.T.);
#270=EDGE_LOOP('',(#236,#245,#252,#253,#262,#269));
#271=FACE_BOUND('',#270,.T.);
#272=ADVANCED_FACE('',(#271),#226,.F.);
#273=CARTESIAN_POINT('',(100.,100.,1.));
#274=DIRECTION('',(0.,0.,-1.));
#275=DIRECTION('',(-1.,0.,0.));
#276=AXIS2_PLACEMENT_3D('',#273,#274,#275);
#277=CYLINDRICAL_SURFACE('',#276,60.);
#278=CARTESIAN_POINT('',(40.,100.,0.));
#279=VERTEX_POINT('',#278);
#280=CARTESIAN_POINT('',(40.,100.,2.));
#281=VERTEX_POINT('',#280);
#282=CARTESIAN_POINT('',(40.,100.,0.));
#283=DIRECTION('',(-0.,-0.,1.));
#284=VECTOR('',#283,2.);
#285=LINE('',#282,#284);
#286=EDGE_CURVE('',#279,#281,#285,.T.);
#287=ORIENTED_EDGE('',*,*,#286,.T.);
#288=CARTESIAN_POINT('',(160.,100.,2.));
#289=VERTEX_POINT('',#288);
#290=CARTESIAN_POINT('',(100.,100.,2.));
#291=DIRECTION('',(0.,0.,1.));
#292=DIRECTION('',(1.,0.,-0.));
#293=AXIS2_PLACEMENT_3D('',#290,#291,#292);
#294=CIRCLE('',#293,60.);
#295=EDGE_CURVE('',#289,#281,#294,.T.);
#296=ORIENTED_EDGE('',*,*,#295,.F.);
#297=CARTESIAN_POINT('',(100.,100.,2.));
#298=DIRECTION('',(0.,0.,1.));
#299=DIRECTION('',(1.,0.,-0.));
#300=AXIS2_PLACEMENT_3D('',#297,#298,#299);
#301=CIRCLE('',#300,60.);
#302=EDGE_CURVE('',#281,#289,#301,.T.);
#303=ORIENTED_EDGE('',*,*,#302,.F.);
#304=ORIENTED_EDGE('',*,*,#286,.F.);
#305=CARTESIAN_POINT('',(160.,100.,0.));
#306=VERTEX_POINT('',#305);
#307=CARTESIAN_POINT('',(100.,100.,0.));
#308=DIRECTION('',(0.,0.,1.));
#309=DIRECTION('',(1.,0.,-0.));
#310=AXIS2_PLACEMENT_3D('',#307,#308,#309);
#311=CIRCLE('',#310,60.);
#312=EDGE_CURVE('',#279,#306,#311,.T.);
#313=ORIENTED_EDGE('',*,*,#312,.T.);
#314=CARTESIAN_POINT('',(100.,100.,0.));
#315=DIRECTION('',(0.,0.,1.));
#316=DIRECTION('',(1.,0.,-0.));
#317=AXIS2_PLACEMENT_3D('',#314,#315,#316);
#318=CIRCLE('',#317,60.);
#319=EDGE_CURVE('',#306,#279,#318,.T.);
#320=ORIENTED_EDGE('',*,*,#319,.T.);
#321=EDGE_LOOP('',(#287,#296,#303,#304,#313,#320));
#322=FACE_BOUND('',#321,.T.);
#323=ADVANCED_FACE('',(#322),#277,.T.);
#324=CARTESIAN_POINT('',(0.,0.,2.));
#325=DIRECTION('',(0.,0.,1.));
#326=DIRECTION('',(1.,0.,0.));
#327=AXIS2_PLACEMENT_3D('',#324,#325,#326);
#328=PLANE('',#327);
#329=ORIENTED_EDGE('',*,*,#261,.F.);
#330=ORIENTED_EDGE('',*,*,#268,.F.);
#331=EDGE_LOOP('',(#329,#330));
#332=FACE_BOUND('',#331,.T.);
#333=ORIENTED_EDGE('',*,*,#295,.T.);
#334=ORIENTED_EDGE('',*,*,#302,.T.);
#335=EDGE_LOOP('',(#333,#334));
#336=FACE_BOUND('',#335,.T.);
#337=ADVANCED_FACE('',(#332,#336),#328,.T.);
#338=CARTESIAN_POINT('',(0.,0.,0.));
#339=DIRECTION('',(0.,0.,1.));
#340=DIRECTION('',(1.,0.,0.));
#341=AXIS2_PLACEMENT_3D('',#338,#339,#340);
#342=PLANE('',#341);
#343=ORIENTED_EDGE('',*,*,#244,.T.);
#344=ORIENTED_EDGE('',*,*,#251,.T.);
#345=EDGE_LOOP('',(#343,#344));
#346=FACE_BOUND('',#345,.T.);
#347=ORIENTED_EDGE('',*,*,#312,.F.);
#348=ORIENTED_EDGE('',*,*,#319,.F.);
#349=EDGE_LOOP('',(#347,#348));
#350=FACE_BOUND('',#349,.T.);
#351=ADVANCED_FACE('',(#346,#350),#342,.F.);
#352=CLOSED_SHELL('',(#272,#323,#337,#351));
#353=MANIFOLD_SOLID_BREP('Body 02',#352);
#221=STYLED_ITEM('',(#220),#353);
#355=CARTESIAN_POINT('',(100.,100.,50.));
#356=DIRECTION('',(0.,0.,-1.));
#357=DIRECTION('',(-1.,0.,0.));
#358=AXIS2_PLACEMENT_3D('',#355,#356,#357);
#359=CYLINDRICAL_SURFACE('',#358,5.);
#360=CARTESIAN_POINT('',(95.,100.,0.));
#361=VERTEX_POINT('',#360);
#362=CARTESIAN_POINT('',(95.,100.,45.));
#363=VERTEX_POINT('',#362);
#364=CARTESIAN_POINT('',(95.,100.,-0.));
#365=DIRECTION('',(-0.,-0.,1.));
#366=VECTOR('',#365,45.);
#367=LINE('',#364,#366);
#368=EDGE_CURVE('',#361,#363,#367,.T.);
#369=ORIENTED_EDGE('',*,*,#368,.T.);
#370=CARTESIAN_POINT('',(105.,100.,45.));
#371=VERTEX_POINT('',#370);
#372=CARTESIAN_POINT('',(100.,100.,45.));
#373=DIRECTION('',(0.,0.,-1.));
#374=DIRECTION('',(-1.,0.,0.));
#375=AXIS2_PLACEMENT_3D('',#372,#373,#374);
#376=CIRCLE('',#375,5.);
#377=EDGE_CURVE('',#363,#371,#376,.T.);
#378=ORIENTED_EDGE('',*,*,#377,.T.);
#379=CARTESIAN_POINT('',(100.,100.,45.));
#380=DIRECTION('',(0.,0.,-1.));
#381=DIRECTION('',(-1.,0.,0.));
#382=AXIS2_PLACEMENT_3D('',#379,#380,#381);
#383=CIRCLE('',#382,5.);
#384=EDGE_CURVE('',#371,#363,#383,.T.);
#385=ORIENTED_EDGE('',*,*,#384,.T.);
#386=ORIENTED_EDGE('',*,*,#368,.F.);
#387=CARTESIAN_POINT('',(105.,100.,0.));
#388=VERTEX_POINT('',#387);
#389=CARTESIAN_POINT('',(100.,100.,0.));
#390=DIRECTION('',(0.,0.,1.));
#391=DIRECTION('',(1.,0.,-0.));
#392=AXIS2_PLACEMENT_3D('',#389,#390,#391);
#393=CIRCLE('',#392,5.);
#394=EDGE_CURVE('',#361,#388,#393,.T.);
#395=ORIENTED_EDGE('',*,*,#394,.T.);
#396=CARTESIAN_POINT('',(100.,100.,0.));
#397=DIRECTION('',(0.,0.,1.));
#398=DIRECTION('',(1.,0.,-0.));
#399=AXIS2_PLACEMENT_3D('',#396,#397,#398);
#400=CIRCLE('',#399,5.);
#401=EDGE_CURVE('',#388,#361,#400,.T.);
#402=ORIENTED_EDGE('',*,*,#401,.T.);
#403=EDGE_LOOP('',(#369,#378,#385,#386,#395,#402));
#404=FACE_BOUND('',#403,.T.);
#405=ADVANCED_FACE('',(#404),#359,.T.);
#406=CARTESIAN_POINT('',(0.,0.,0.));
#407=DIRECTION('',(0.,0.,1.));
#408=DIRECTION('',(1.,0.,0.));
#409=AXIS2_PLACEMENT_3D('',#406,#407,#408);
#410=PLANE('',#409);
#411=ORIENTED_EDGE('',*,*,#394,.F.);
#412=ORIENTED_EDGE('',*,*,#401,.F.);
#413=EDGE_LOOP('',(#411,#412));
#414=FACE_BOUND('',#413,.T.);
#415=ADVANCED_FACE('',(#414),#410,.F.);
#416=CARTESIAN_POINT('',(100.,100.,45.));
#417=DIRECTION('',(0.,0.,1.));
#418=DIRECTION('',(1.,0.,-0.));
#419=AXIS2_PLACEMENT_3D('',#416,#417,#418);
#420=SPHERICAL_SURFACE('',#419,5.);
#421=CARTESIAN_POINT('',(100.,100.,50.));
#422=VERTEX_POINT('',#421);
#423=CARTESIAN_POINT('',(100.,100.,45.));
#424=DIRECTION('',(-0.,1.,-0.));
#425=DIRECTION('',(1.,0.,0.));
#426=AXIS2_PLACEMENT_3D('',#423,#424,#425);
#427=CIRCLE('',#426,5.);
#428=EDGE_CURVE('',#422,#371,#427,.T.);
#429=ORIENTED_EDGE('',*,*,#428,.T.);
#430=ORIENTED_EDGE('',*,*,#377,.F.);
#431=ORIENTED_EDGE('',*,*,#384,.F.);
#432=ORIENTED_EDGE('',*,*,#428,.F.);
#433=EDGE_LOOP('',(#429,#430,#431,#432));
#434=FACE_BOUND('',#433,.T.);
#435=ADVANCED_FACE('',(#434),#420,.T.);
#436=CLOSED_SHELL('',(#405,#415,#435));
#437=MANIFOLD_SOLID_BREP('Body 01',#436);
#354=STYLED_ITEM('',(#220),#437);
#438=(NAMED_UNIT(*)PLANE_ANGLE_UNIT()SI_UNIT($,.RADIAN.));
#439=PLANE_ANGLE_MEASURE_WITH_UNIT(PLANE_ANGLE_MEASURE(0.0174532925),#438);
#440=(CONVERSION_BASED_UNIT('DEGREE',#439)NAMED_UNIT(#441)PLANE_ANGLE_UNIT());
#441=DIMENSIONAL_EXPONENTS(0.,0.,0.,0.,0.,0.,0.);
#442=(NAMED_UNIT(*)SI_UNIT($,.STERADIAN.)SOLID_ANGLE_UNIT());
#443=(LENGTH_UNIT()NAMED_UNIT(*)SI_UNIT(.MILLI.,.METRE.));
#444=UNCERTAINTY_MEASURE_WITH_UNIT(LENGTH_MEASURE(1.000000E-03),#443,'DISTANCE_ACCURACY_VALUE','Maximum Tolerance applied to model');
#445=(GEOMETRIC_REPRESENTATION_CONTEXT(3)GLOBAL_UNCERTAINTY_ASSIGNED_CONTEXT((#444))GLOBAL_UNIT_ASSIGNED_CONTEXT((#443,#440,#442))REPRESENTATION_CONTEXT('','Circular Pattern 02'));
#457=CARTESIAN_POINT('',(0.,0.,0.));
#458=DIRECTION('',(0.,0.,1.));
#459=DIRECTION('',(1.,0.,-0.));
#460=AXIS2_PLACEMENT_3D('',#457,#458,#459);
#461=ITEM_DEFINED_TRANSFORMATION('','',#460,#15);
#462=(REPRESENTATION_RELATIONSHIP('','',#447,#16)REPRESENTATION_RELATIONSHIP_WITH_TRANSFORMATION(#461)SHAPE_REPRESENTATION_RELATIONSHIP());
#463=NEXT_ASSEMBLY_USAGE_OCCURRENCE('Circular Pattern 02_1','Circular Pattern 02','Circular Pattern 02',#25,#456,$);
#464=PRODUCT_DEFINITION_SHAPE('','',#463);
#465=CONTEXT_DEPENDENT_SHAPE_REPRESENTATION(#462,#464);
#447=SHAPE_REPRESENTATION('Circular Pattern 02',(#15),#445);
#466=CARTESIAN_POINT('',(0.,0.,0.));
#467=DIRECTION('',(0.,0.,1.));
#468=DIRECTION('',(1.,0.,0.));
#469=AXIS2_PLACEMENT_3D('',#466,#467,#468);
#471=MAPPED_ITEM('',#470,#469);
#470=REPRESENTATION_MAP(#469,#447);
#472=APPLICATION_CONTEXT('Managed model based 3d engineering');
#473=APPLICATION_PROTOCOL_DEFINITION('international standard','ap242_managed_model_based_3d_engineering',2014,#472);
#474=PRODUCT_CONTEXT('',#472,'mechanical');
#475=PRODUCT_DEFINITION_CONTEXT('part definition',#472,'design');
#455=PRODUCT('Circular Pattern 02','Circular Pattern 02','',(#474));
#476=PRODUCT_RELATED_PRODUCT_CATEGORY('part','',(#455));
#477=PRODUCT_DEFINITION_FORMATION_WITH_SPECIFIED_SOURCE('','',#455,.NOT_KNOWN.);
#456=PRODUCT_DEFINITION('design','',#477,#475);
#454=PRODUCT_DEFINITION_SHAPE('','',#456);
#478=SHAPE_DEFINITION_REPRESENTATION(#454,#447);
#446=DRAUGHTING_MODEL('',(#471),#445);
#479=(NAMED_UNIT(*)PLANE_ANGLE_UNIT()SI_UNIT($,.RADIAN.));
#480=PLANE_ANGLE_MEASURE_WITH_UNIT(PLANE_ANGLE_MEASURE(0.0174532925),#479);
#481=(CONVERSION_BASED_UNIT('DEGREE',#480)NAMED_UNIT(#482)PLANE_ANGLE_UNIT());
#482=DIMENSIONAL_EXPONENTS(0.,0.,0.,0.,0.,0.,0.);
#483=(NAMED_UNIT(*)SI_UNIT($,.STERADIAN.)SOLID_ANGLE_UNIT());
#484=(LENGTH_UNIT()NAMED_UNIT(*)SI_UNIT(.MILLI.,.METRE.));
#485=UNCERTAINTY_MEASURE_WITH_UNIT(LENGTH_MEASURE(1.000000E-05),#484,'DISTANCE_ACCURACY_VALUE','Maximum Tolerance applied to model');
#486=(GEOMETRIC_REPRESENTATION_CONTEXT(3)GLOBAL_UNCERTAINTY_ASSIGNED_CONTEXT((#485))GLOBAL_UNIT_ASSIGNED_CONTEXT((#484,#481,#483))REPRESENTATION_CONTEXT('','Circular Pattern 01'));
#498=CARTESIAN_POINT('',(0.,0.,0.));
#499=DIRECTION('',(0.,0.,1.));
#500=DIRECTION('',(1.,0.,-0.));
#501=AXIS2_PLACEMENT_3D('',#498,#499,#500);
#502=ITEM_DEFINED_TRANSFORMATION('','',#501,#15);
#503=(REPRESENTATION_RELATIONSHIP('','',#488,#16)REPRESENTATION_RELATIONSHIP_WITH_TRANSFORMATION(#502)SHAPE_REPRESENTATION_RELATIONSHIP());
#504=NEXT_ASSEMBLY_USAGE_OCCURRENCE('Circular Pattern 01_2','Circular Pattern 01','Circular Pattern 01',#25,#497,$);
#505=PRODUCT_DEFINITION_SHAPE('','',#504);
#506=CONTEXT_DEPENDENT_SHAPE_REPRESENTATION(#503,#505);
#508=CARTESIAN_POINT('',(165.000595719,286.000595719,22.));
#509=DIRECTION('',(0.,0.,-1.));
#510=DIRECTION('',(-0.,1.,0.));
#511=AXIS2_PLACEMENT_3D('',#508,#509,#510);
#512=CYLINDRICAL_SURFACE('',#511,5.);
#513=CARTESIAN_POINT('',(165.000595719,291.000595719,3.));
#514=VERTEX_POINT('',#513);
#515=CARTESIAN_POINT('',(165.000595719,291.000595719,22.));
#516=VERTEX_POINT('',#515);
#517=CARTESIAN_POINT('',(165.000595719,291.000595719,3.));
#518=DIRECTION('',(-0.,-0.,1.));
#519=VECTOR('',#518,19.);
#520=LINE('',#517,#519);
#521=EDGE_CURVE('',#514,#516,#520,.T.);
#522=ORIENTED_EDGE('',*,*,#521,.F.);
#523=CARTESIAN_POINT('',(167.700698346,290.208854955,3.));
#524=VERTEX_POINT('',#523);
#525=CARTESIAN_POINT('',(165.000595719,286.000595719,3.));
#526=DIRECTION('',(0.,-0.,1.));
#527=DIRECTION('',(1.,0.,0.));
#528=AXIS2_PLACEMENT_3D('',#525,#526,#527);
#529=CIRCLE('',#528,5.);
#530=EDGE_CURVE('',#524,#514,#529,.T.);
#531=ORIENTED_EDGE('',*,*,#530,.F.);
#532=CARTESIAN_POINT('',(167.700698346,290.208854955,21.));
#533=VERTEX_POINT('',#532);
#534=CARTESIAN_POINT('',(167.700698346,290.208854955,21.));
#535=DIRECTION('',(0.,0.,-1.));
#536=VECTOR('',#535,18.);
#537=LINE('',#534,#536);
#538=EDGE_CURVE('',#533,#524,#537,.T.);
#539=ORIENTED_EDGE('',*,*,#538,.F.);
#540=CARTESIAN_POINT('',(166.700698346,290.702685792,22.));
#541=VERTEX_POINT('',#540);
#542=CARTESIAN_POINT('',(167.700698346,290.208854955,21.));
#543=CARTESIAN_POINT('',(167.700698346,290.208854955,21.069778196));
#544=CARTESIAN_POINT('',(167.693477491,290.213511824,21.138013521));
#545=CARTESIAN_POINT('',(167.679498264,290.222382207,21.204818748));
#546=CARTESIAN_POINT('',(167.665519037,290.231252589,21.271623974));
#547=CARTESIAN_POINT('',(167.644423794,290.244550725,21.337430509));
#548=CARTESIAN_POINT('',(167.617739349,290.260943031,21.398792927));
#549=CARTESIAN_POINT('',(167.564370458,290.293727642,21.521517763));
#550=CARTESIAN_POINT('',(167.487263273,290.339670689,21.630717788));
#551=CARTESIAN_POINT('',(167.394825385,290.390090485,21.719852522));
#552=CARTESIAN_POINT('',(167.348606441,290.415300383,21.764419889));
#553=CARTESIAN_POINT('',(167.297847605,290.442012776,21.804636822));
#554=CARTESIAN_POINT('',(167.244590771,290.468759346,21.83915495));
#555=CARTESIAN_POINT('',(167.191333938,290.495505917,21.873673077));
#556=CARTESIAN_POINT('',(167.135264753,290.522475336,21.902887518));
#557=CARTESIAN_POINT('',(167.076255298,290.54940186,21.926799318));
#558=CARTESIAN_POINT('',(167.017245843,290.576328384,21.950711117));
#559=CARTESIAN_POINT('',(166.95544054,290.603112523,21.969113057));
#560=CARTESIAN_POINT('',(166.892803629,290.628721606,21.981374322));
#561=CARTESIAN_POINT('',(166.830166718,290.654330688,21.993635587));
#562=CARTESIAN_POINT('',(166.766169212,290.679013938,22.));
#563=CARTESIAN_POINT('',(166.700698346,290.702685792,22.));
#564=B_SPLINE_CURVE_WITH_KNOTS('',3,(#542,#543,#544,#545,#546,#547,#548,#549,#550,#551,#552,#553,#554,#555,#556,#557,#558,#559,#560,#561,#562,#563),.UNSPECIFIED.,.F.,.F.,(4,3,3,3,3,3,3,4),(0.,0.000206039,0.000412078,0.000824156,0.001030195,0.001236234,0.001442273,0.001648312),.UNSPECIFIED.);
#565=EDGE_CURVE('',#533,#541,#564,.T.);
#566=ORIENTED_EDGE('',*,*,#565,.T.);
#567=CARTESIAN_POINT('',(165.000595719,286.000595719,22.));
#568=DIRECTION('',(0.,-0.,1.));
#569=DIRECTION('',(1.,0.,0.));
#570=AXIS2_PLACEMENT_3D('',#567,#568,#569);
#571=CIRCLE('',#570,5.);
#572=EDGE_CURVE('',#541,#516,#571,.T.);
#573=ORIENTED_EDGE('',*,*,#572,.T.);
#574=EDGE_LOOP('',(#522,#531,#539,#566,#573));
#575=FACE_BOUND('',#574,.T.);
#576=ADVANCED_FACE('',(#575),#512,.F.);
#577=CARTESIAN_POINT('',(167.700698346,315.773671471,22.));
#578=DIRECTION('',(-1.,-0.,0.));
#579=DIRECTION('',(0.,0.,-1.));
#580=AXIS2_PLACEMENT_3D('',#577,#578,#579);
#581=PLANE('',#580);
#582=CARTESIAN_POINT('',(167.700698346,340.964216319,21.));
#583=VERTEX_POINT('',#582);
#584=CARTESIAN_POINT('',(167.700698346,340.964216319,3.));
#585=VERTEX_POINT('',#584);
#586=CARTESIAN_POINT('',(167.700698346,340.964216319,21.));
#587=DIRECTION('',(0.,0.,-1.));
#588=VECTOR('',#587,18.);
#589=LINE('',#586,#588);
#590=EDGE_CURVE('',#583,#585,#589,.T.);
#591=ORIENTED_EDGE('',*,*,#590,.F.);
#592=CARTESIAN_POINT('',(167.700698346,340.964216319,21.));
#593=DIRECTION('',(0.,-1.,-0.));
#594=VECTOR('',#593,50.755361363);
#595=LINE('',#592,#594);
#596=EDGE_CURVE('',#583,#533,#595,.T.);
#597=ORIENTED_EDGE('',*,*,#596,.T.);
#598=ORIENTED_EDGE('',*,*,#538,.T.);
#599=CARTESIAN_POINT('',(167.700698346,290.208854955,3.));
#600=DIRECTION('',(-0.,1.,0.));
#601=VECTOR('',#600,50.755361363);
#602=LINE('',#599,#601);
#603=EDGE_CURVE('',#524,#585,#602,.T.);
#604=ORIENTED_EDGE('',*,*,#603,.T.);
#605=EDGE_LOOP('',(#591,#597,#598,#604));
#606=FACE_BOUND('',#605,.T.);
#607=ADVANCED_FACE('',(#606),#581,.F.);
#608=CARTESIAN_POINT('',(165.000595719,340.964216319,22.));
#609=DIRECTION('',(-0.,1.,0.));
#610=DIRECTION('',(0.,0.,1.));
#611=AXIS2_PLACEMENT_3D('',#608,#609,#610);
#612=PLANE('',#611);
#613=CARTESIAN_POINT('',(164.000493092,340.964216319,22.));
#614=VERTEX_POINT('',#613);
#615=CARTESIAN_POINT('',(166.700698346,340.964216319,22.));
#616=VERTEX_POINT('',#615);
#617=CARTESIAN_POINT('',(164.000493092,340.964216319,22.));
#618=DIRECTION('',(1.,0.,0.));
#619=VECTOR('',#618,2.700205254);
#620=LINE('',#617,#619);
#621=EDGE_CURVE('',#614,#616,#620,.T.);
#622=ORIENTED_EDGE('',*,*,#621,.T.);
#623=CARTESIAN_POINT('',(166.700698346,340.964216319,21.));
#624=DIRECTION('',(-0.,1.,0.));
#625=DIRECTION('',(0.,0.,1.));
#626=AXIS2_PLACEMENT_3D('',#623,#624,#625);
#627=CIRCLE('',#626,1.);
#628=EDGE_CURVE('',#616,#583,#627,.T.);
#629=ORIENTED_EDGE('',*,*,#628,.T.);
#630=ORIENTED_EDGE('',*,*,#590,.T.);
#631=CARTESIAN_POINT('',(163.000493092,340.964216319,3.));
#632=VERTEX_POINT('',#631);
#633=CARTESIAN_POINT('',(163.000493092,340.964216319,3.));
#634=DIRECTION('',(1.,0.,0.));
#635=VECTOR('',#634,4.700205254);
#636=LINE('',#633,#635);
#637=EDGE_CURVE('',#632,#585,#636,.T.);
#638=ORIENTED_EDGE('',*,*,#637,.F.);
#639=CARTESIAN_POINT('',(163.000493092,340.964216319,21.));
#640=VERTEX_POINT('',#639);
#641=CARTESIAN_POINT('',(163.000493092,340.964216319,21.));
#642=DIRECTION('',(0.,0.,-1.));
#643=VECTOR('',#642,18.);
#644=LINE('',#641,#643);
#645=EDGE_CURVE('',#640,#632,#644,.T.);
#646=ORIENTED_EDGE('',*,*,#645,.F.);
#647=CARTESIAN_POINT('',(164.000493092,340.964216319,21.));
#648=DIRECTION('',(-0.,1.,0.));
#649=DIRECTION('',(0.,0.,1.));
#650=AXIS2_PLACEMENT_3D('',#647,#648,#649);
#651=CIRCLE('',#650,1.);
#652=EDGE_CURVE('',#640,#614,#651,.T.);
#653=ORIENTED_EDGE('',*,*,#652,.T.);
#654=EDGE_LOOP('',(#622,#629,#630,#638,#646,#653));
#655=FACE_BOUND('',#654,.T.);
#656=ADVANCED_FACE('',(#655),#612,.T.);
#657=CARTESIAN_POINT('',(163.000493092,315.773671471,22.));
#658=DIRECTION('',(-1.,-0.,0.));
#659=DIRECTION('',(0.,0.,-1.));
#660=AXIS2_PLACEMENT_3D('',#657,#658,#659);
#661=PLANE('',#660);
#662=CARTESIAN_POINT('',(163.000493092,290.583126622,21.));
#663=VERTEX_POINT('',#662);
#664=CARTESIAN_POINT('',(163.000493092,290.583126622,3.));
#665=VERTEX_POINT('',#664);
#666=CARTESIAN_POINT('',(163.000493092,290.583126622,21.));
#667=DIRECTION('',(0.,0.,-1.));
#668=VECTOR('',#667,18.);
#669=LINE('',#666,#668);
#670=EDGE_CURVE('',#663,#665,#669,.T.);
#671=ORIENTED_EDGE('',*,*,#670,.F.);
#672=CARTESIAN_POINT('',(163.000493092,290.583126622,21.));
#673=DIRECTION('',(-0.,1.,0.));
#674=VECTOR('',#673,50.381089697);
#675=LINE('',#672,#674);
#676=EDGE_CURVE('',#663,#640,#675,.T.);
#677=ORIENTED_EDGE('',*,*,#676,.T.);
#678=ORIENTED_EDGE('',*,*,#645,.T.);
#679=CARTESIAN_POINT('',(163.000493092,290.583126622,3.));
#680=DIRECTION('',(-0.,1.,0.));
#681=VECTOR('',#680,50.381089697);
#682=LINE('',#679,#681);
#683=EDGE_CURVE('',#665,#632,#682,.T.);
#684=ORIENTED_EDGE('',*,*,#683,.F.);
#685=EDGE_LOOP('',(#671,#677,#678,#684));
#686=FACE_BOUND('',#685,.T.);
#687=ADVANCED_FACE('',(#686),#661,.T.);
#688=CARTESIAN_POINT('',(-134.999404281,386.000595719,22.));
#689=DIRECTION('',(0.,0.,1.));
#690=DIRECTION('',(1.,0.,0.));
#691=AXIS2_PLACEMENT_3D('',#688,#689,#690);
#692=PLANE('',#691);
#693=CARTESIAN_POINT('',(164.000493092,290.899554254,22.));
#694=VERTEX_POINT('',#693);
#695=CARTESIAN_POINT('',(165.000595719,286.000595719,22.));
#696=DIRECTION('',(0.,-0.,1.));
#697=DIRECTION('',(1.,0.,0.));
#698=AXIS2_PLACEMENT_3D('',#695,#696,#697);
#699=CIRCLE('',#698,5.);
#700=EDGE_CURVE('',#516,#694,#699,.T.);
#701=ORIENTED_EDGE('',*,*,#700,.F.);
#702=ORIENTED_EDGE('',*,*,#572,.F.);
#703=CARTESIAN_POINT('',(166.700698346,290.702685792,22.));
#704=DIRECTION('',(-0.,1.,0.));
#705=VECTOR('',#704,50.261530527);
#706=LINE('',#703,#705);
#707=EDGE_CURVE('',#541,#616,#706,.T.);
#708=ORIENTED_EDGE('',*,*,#707,.T.);
#709=ORIENTED_EDGE('',*,*,#621,.F.);
#710=CARTESIAN_POINT('',(164.000493092,340.964216319,22.));
#711=DIRECTION('',(0.,-1.,-0.));
#712=VECTOR('',#711,50.064662064);
#713=LINE('',#710,#712);
#714=EDGE_CURVE('',#614,#694,#713,.T.);
#715=ORIENTED_EDGE('',*,*,#714,.T.);
#716=EDGE_LOOP('',(#701,#702,#708,#709,#715));
#717=FACE_BOUND('',#716,.T.);
#718=ADVANCED_FACE('',(#717),#692,.T.);
#719=CARTESIAN_POINT('',(-134.999404281,386.000595719,3.));
#720=DIRECTION('',(0.,0.,1.));
#721=DIRECTION('',(1.,0.,0.));
#722=AXIS2_PLACEMENT_3D('',#719,#720,#721);
#723=PLANE('',#722);
#724=ORIENTED_EDGE('',*,*,#530,.T.);
#725=CARTESIAN_POINT('',(165.000595719,286.000595719,3.));
#726=DIRECTION('',(0.,-0.,1.));
#727=DIRECTION('',(1.,0.,0.));
#728=AXIS2_PLACEMENT_3D('',#725,#726,#727);
#729=CIRCLE('',#728,5.);
#730=EDGE_CURVE('',#514,#665,#729,.T.);
#731=ORIENTED_EDGE('',*,*,#730,.T.);
#732=ORIENTED_EDGE('',*,*,#683,.T.);
#733=ORIENTED_EDGE('',*,*,#637,.T.);
#734=ORIENTED_EDGE('',*,*,#603,.F.);
#735=EDGE_LOOP('',(#724,#731,#732,#733,#734));
#736=FACE_BOUND('',#735,.T.);
#737=ADVANCED_FACE('',(#736),#723,.F.);
#738=CARTESIAN_POINT('',(166.700698346,386.000595719,21.));
#739=DIRECTION('',(0.,-1.,0.));
#740=DIRECTION('',(0.,0.,-1.));
#741=AXIS2_PLACEMENT_3D('',#738,#739,#740);
#742=CYLINDRICAL_SURFACE('',#741,1.);
#743=ORIENTED_EDGE('',*,*,#565,.F.);
#744=ORIENTED_EDGE('',*,*,#596,.F.);
#745=ORIENTED_EDGE('',*,*,#628,.F.);
#746=ORIENTED_EDGE('',*,*,#707,.F.);
#747=EDGE_LOOP('',(#743,#744,#745,#746));
#748=FACE_BOUND('',#747,.T.);
#749=ADVANCED_FACE('',(#748),#742,.T.);
#750=CARTESIAN_POINT('',(164.000493092,315.773671471,21.));
#751=DIRECTION('',(-0.,1.,0.));
#752=DIRECTION('',(0.,0.,1.));
#753=AXIS2_PLACEMENT_3D('',#750,#751,#752);
#754=CYLINDRICAL_SURFACE('',#753,1.);
#755=CARTESIAN_POINT('',(164.000493092,290.899554254,22.));
#756=CARTESIAN_POINT('',(163.934290757,290.886039315,22.));
#757=CARTESIAN_POINT('',(163.869488964,290.871414341,21.993493285));
#758=CARTESIAN_POINT('',(163.805987645,290.855790004,21.980901438));
#759=CARTESIAN_POINT('',(163.742486325,290.840165668,21.968309591));
#760=CARTESIAN_POINT('',(163.679704376,290.823368761,21.949368891));
#761=CARTESIAN_POINT('',(163.61973125,290.806135576,21.924673142));
#762=CARTESIAN_POINT('',(163.559758124,290.788902391,21.899977394));
#763=CARTESIAN_POINT('',(163.502965195,290.771371229,21.869836564));
#764=CARTESIAN_POINT('',(163.449220543,290.753829888,21.834325223));
#765=CARTESIAN_POINT('',(163.395475891,290.736288547,21.798813882));
#766=CARTESIAN_POINT('',(163.344408396,290.718586901,21.757451942));
#767=CARTESIAN_POINT('',(163.298370203,290.701917692,21.712055791));
#768=CARTESIAN_POINT('',(163.25233201,290.685248482,21.66665964));
#769=CARTESIAN_POINT('',(163.21086676,290.669474943,21.617059906));
#770=CARTESIAN_POINT('',(163.174063939,290.65503249,21.563040724));
#771=CARTESIAN_POINT('',(163.137261119,290.640590037,21.509021541));
#772=CARTESIAN_POINT('',(163.105277531,290.627531896,21.450449252));
#773=CARTESIAN_POINT('',(163.079661623,290.616872595,21.389960776));
#774=CARTESIAN_POINT('',(163.028429807,290.595553993,21.268983824));
#775=CARTESIAN_POINT('',(163.000493092,290.583126622,21.135286538));
#776=CARTESIAN_POINT('',(163.000493092,290.583126622,21.));
#777=B_SPLINE_CURVE_WITH_KNOTS('',3,(#755,#756,#757,#758,#759,#760,#761,#762,#763,#764,#765,#766,#767,#768,#769,#770,#771,#772,#773,#774,#775,#776),.UNSPECIFIED.,.F.,.F.,(4,3,3,3,3,3,3,4),(0.,0.000199737,0.000399473,0.00059921,0.000798946,0.000998683,0.001198419,0.001597893),.UNSPECIFIED.);
#778=EDGE_CURVE('',#694,#663,#777,.T.);
#779=ORIENTED_EDGE('',*,*,#778,.F.);
#780=ORIENTED_EDGE('',*,*,#714,.F.);
#781=ORIENTED_EDGE('',*,*,#652,.F.);
#782=ORIENTED_EDGE('',*,*,#676,.F.);
#783=EDGE_LOOP('',(#779,#780,#781,#782));
#784=FACE_BOUND('',#783,.T.);
#785=ADVANCED_FACE('',(#784),#754,.T.);
#786=CARTESIAN_POINT('',(165.000595719,286.000595719,22.));
#787=DIRECTION('',(0.,0.,-1.));
#788=DIRECTION('',(-0.,1.,0.));
#789=AXIS2_PLACEMENT_3D('',#786,#787,#788);
#790=CYLINDRICAL_SURFACE('',#789,5.);
#791=ORIENTED_EDGE('',*,*,#521,.T.);
#792=ORIENTED_EDGE('',*,*,#700,.T.);
#793=ORIENTED_EDGE('',*,*,#778,.T.);
#794=ORIENTED_EDGE('',*,*,#670,.T.);
#795=ORIENTED_EDGE('',*,*,#730,.F.);
#796=EDGE_LOOP('',(#791,#792,#793,#794,#795));
#797=FACE_BOUND('',#796,.T.);
#798=ADVANCED_FACE('',(#797),#790,.F.);
#799=CLOSED_SHELL('',(#576,#607,#656,#687,#718,#737,#749,#785,#798));
#800=MANIFOLD_SOLID_BREP('Body 04',#799);
#507=STYLED_ITEM('',(#220),#800);
#488=SHAPE_REPRESENTATION('Circular Pattern 01',(#15),#486);
#489=ADVANCED_BREP_SHAPE_REPRESENTATION('Circular Pattern 01',(#800),#486);
#808=SHAPE_REPRESENTATION_RELATIONSHIP('','',#488,#489);
#809=CARTESIAN_POINT('',(0.,0.,0.));
#810=DIRECTION('',(0.,0.,1.));
#811=DIRECTION('',(1.,0.,0.));
#812=AXIS2_PLACEMENT_3D('',#809,#810,#811);
#814=MAPPED_ITEM('',#813,#812);
#813=REPRESENTATION_MAP(#812,#488);
#496=PRODUCT('Circular Pattern 01','Circular Pattern 01','',(#474));
#815=PRODUCT_RELATED_PRODUCT_CATEGORY('part','',(#496));
#816=PRODUCT_DEFINITION_FORMATION_WITH_SPECIFIED_SOURCE('','',#496,.NOT_KNOWN.);
#497=PRODUCT_DEFINITION('design','',#816,#475);
#495=PRODUCT_DEFINITION_SHAPE('','',#497);
#817=SHAPE_DEFINITION_REPRESENTATION(#495,#488);
#487=DRAUGHTING_MODEL('',(#814),#486);
#16=SHAPE_REPRESENTATION('root',(#15,#460,#501),#10);
#17=ADVANCED_BREP_SHAPE_REPRESENTATION('root',(#213,#353,#437),#10);
#825=SHAPE_REPRESENTATION_RELATIONSHIP('','',#16,#17);
#826=CARTESIAN_POINT('',(0.,0.,0.));
#827=DIRECTION('',(0.,0.,1.));
#828=DIRECTION('',(1.,0.,0.));
#829=AXIS2_PLACEMENT_3D('',#826,#827,#828);
#831=MAPPED_ITEM('',#830,#829);
#830=REPRESENTATION_MAP(#829,#16);
#24=PRODUCT('root','root','',(#474));
#832=PRODUCT_RELATED_PRODUCT_CATEGORY('part','',(#24));
#833=PRODUCT_DEFINITION_FORMATION_WITH_SPECIFIED_SOURCE('','',#24,.NOT_KNOWN.);
#25=PRODUCT_DEFINITION('design','',#833,#475);
#23=PRODUCT_DEFINITION_SHAPE('','',#25);
#834=SHAPE_DEFINITION_REPRESENTATION(#23,#16);
#11=DRAUGHTING_MODEL('',(#831),#10);
#835=DESCRIPTIVE_REPRESENTATION_ITEM('KEY','/Users/khilli/Library/Containers/com.shapr3d.shapr/Data/tmp/3E2A165B-6A31-4080-92A3-9C8EA3BCD2AA.tmp');
#836=PROPERTY_DEFINITION('KEY','',#25);
#837=REPRESENTATION('',(#835),#10);
#838=PROPERTY_DEFINITION_REPRESENTATION(#836,#837);
#839=GENERAL_PROPERTY('','KEY','');
#840=GENERAL_PROPERTY_ASSOCIATION('','',#839,#836);
#1=MECHANICAL_DESIGN_GEOMETRIC_PRESENTATION_REPRESENTATION('',(#26,#221,#354,#507),#10);
ENDSEC;
END-ISO-10303-21;
