ISO-10303-21;
HEADER;

/* File generated by Shapr3D Version 26.121.0.11316 */

FILE_DESCRIPTION(('HOOPS Exchange Step'),'2;1');

FILE_NAME('/Users/khilli/Library/Containers/com.shapr3d.shapr/Data/tmp/export/temp_export',
'2026-07-28T12:18:05+01:00',
('khilli'),
('Shapr3D Limited'),
'HOOPS Exchange 2026.3',
'Shapr3D',
'Authorized');

FILE_SCHEMA( ('AP242_MANAGED_MODEL_BASED_3D_ENGINEERING_MIM_LF {1 0 10303 442 1 1 4}') );

ENDSEC;

DATA;
#3=(NAMED_UNIT(*)PLANE_ANGLE_UNIT()SI_UNIT($,.RADIAN.));
#4=PLANE_ANGLE_MEASURE_WITH_UNIT(PLANE_ANGLE_MEASURE(0.0174532925),#3);
#5=(CONVERSION_BASED_UNIT('DEGREE',#4)NAMED_UNIT(#6)PLANE_ANGLE_UNIT());
#6=DIMENSIONAL_EXPONENTS(0.,0.,0.,0.,0.,0.,0.);
#7=(NAMED_UNIT(*)SI_UNIT($,.STERADIAN.)SOLID_ANGLE_UNIT());
#8=(LENGTH_UNIT()NAMED_UNIT(*)SI_UNIT(.MILLI.,.METRE.));
#9=UNCERTAINTY_MEASURE_WITH_UNIT(LENGTH_MEASURE(1.000000E-05),#8,'DISTANCE_ACCURACY_VALUE','Maximum Tolerance applied to model');
#10=(GEOMETRIC_REPRESENTATION_CONTEXT(3)GLOBAL_UNCERTAINTY_ASSIGNED_CONTEXT((#9))GLOBAL_UNIT_ASSIGNED_CONTEXT((#8,#5,#7))REPRESENTATION_CONTEXT('','root'));
#12=CARTESIAN_POINT('',(0.,0.,0.));
#13=DIRECTION('',(0.,0.,1.));
#14=DIRECTION('',(1.,0.,0.));
#15=AXIS2_PLACEMENT_3D('',#12,#13,#14);
#27=CARTESIAN_POINT('',(100.,100.,22.));
#28=DIRECTION('',(0.,0.,-1.));
#29=DIRECTION('',(-1.,0.,0.));
#30=AXIS2_PLACEMENT_3D('',#27,#28,#29);
#31=CYLINDRICAL_SURFACE('',#30,60.);
#32=CARTESIAN_POINT('',(40.,100.,2.));
#33=VERTEX_POINT('',#32);
#34=CARTESIAN_POINT('',(40.,100.,22.));
#35=VERTEX_POINT('',#34);
#36=CARTESIAN_POINT('',(40.,100.,2.));
#37=DIRECTION('',(-0.,-0.,1.));
#38=VECTOR('',#37,20.);
#39=LINE('',#36,#38);
#40=EDGE_CURVE('',#33,#35,#39,.T.);
#41=ORIENTED_EDGE('',*,*,#40,.T.);
#42=CARTESIAN_POINT('',(160.,100.,22.));
#43=VERTEX_POINT('',#42);
#44=CARTESIAN_POINT('',(100.,100.,22.));
#45=DIRECTION('',(0.,0.,1.));
#46=DIRECTION('',(1.,0.,-0.));
#47=AXIS2_PLACEMENT_3D('',#44,#45,#46);
#48=CIRCLE('',#47,60.);
#49=EDGE_CURVE('',#43,#35,#48,.T.);
#50=ORIENTED_EDGE('',*,*,#49,.F.);
#51=CARTESIAN_POINT('',(100.,100.,22.));
#52=DIRECTION('',(0.,0.,1.));
#53=DIRECTION('',(1.,0.,-0.));
#54=AXIS2_PLACEMENT_3D('',#51,#52,#53);
#55=CIRCLE('',#54,60.);
#56=EDGE_CURVE('',#35,#43,#55,.T.);
#57=ORIENTED_EDGE('',*,*,#56,.F.);
#58=ORIENTED_EDGE('',*,*,#40,.F.);
#59=CARTESIAN_POINT('',(160.,100.,2.));
#60=VERTEX_POINT('',#59);
#61=CARTESIAN_POINT('',(100.,100.,2.));
#62=DIRECTION('',(0.,0.,1.));
#63=DIRECTION('',(1.,0.,-0.));
#64=AXIS2_PLACEMENT_3D('',#61,#62,#63);
#65=CIRCLE('',#64,60.);
#66=EDGE_CURVE('',#33,#60,#65,.T.);
#67=ORIENTED_EDGE('',*,*,#66,.T.);
#68=CARTESIAN_POINT('',(100.,100.,2.));
#69=DIRECTION('',(0.,0.,1.));
#70=DIRECTION('',(1.,0.,-0.));
#71=AXIS2_PLACEMENT_3D('',#68,#69,#70);
#72=CIRCLE('',#71,60.);
#73=EDGE_CURVE('',#60,#33,#72,.T.);
#74=ORIENTED_EDGE('',*,*,#73,.T.);
#75=EDGE_LOOP('',(#41,#50,#57,#58,#67,#74));
#76=FACE_BOUND('',#75,.T.);
#77=ADVANCED_FACE('',(#76),#31,.T.);
#78=CARTESIAN_POINT('',(0.,-200.,22.));
#79=DIRECTION('',(0.,0.,1.));
#80=DIRECTION('',(1.,0.,0.));
#81=AXIS2_PLACEMENT_3D('',#78,#79,#80);
#82=PLANE('',#81);
#83=CARTESIAN_POINT('',(155.,100.,22.));
#84=VERTEX_POINT('',#83);
#85=CARTESIAN_POINT('',(100.,155.,22.));
#86=VERTEX_POINT('',#85);
#87=CARTESIAN_POINT('',(100.,100.,22.));
#88=DIRECTION('',(0.,-0.,1.));
#89=DIRECTION('',(0.,1.,0.));
#90=AXIS2_PLACEMENT_3D('',#87,#88,#89);
#91=CIRCLE('',#90,55.);
#92=EDGE_CURVE('',#84,#86,#91,.T.);
#93=ORIENTED_EDGE('',*,*,#92,.F.);
#94=CARTESIAN_POINT('',(100.,100.,22.));
#95=DIRECTION('',(0.,-0.,1.));
#96=DIRECTION('',(0.,1.,0.));
#97=AXIS2_PLACEMENT_3D('',#94,#95,#96);
#98=CIRCLE('',#97,55.);
#99=EDGE_CURVE('',#86,#84,#98,.T.);
#100=ORIENTED_EDGE('',*,*,#99,.F.);
#101=EDGE_LOOP('',(#93,#100));
#102=FACE_BOUND('',#101,.T.);
#103=ORIENTED_EDGE('',*,*,#49,.T.);
#104=ORIENTED_EDGE('',*,*,#56,.T.);
#105=EDGE_LOOP('',(#103,#104));
#106=FACE_BOUND('',#105,.T.);
#107=ADVANCED_FACE('',(#102,#106),#82,.T.);
#108=CARTESIAN_POINT('',(0.,-200.,2.));
#109=DIRECTION('',(0.,0.,1.));
#110=DIRECTION('',(1.,0.,0.));
#111=AXIS2_PLACEMENT_3D('',#108,#109,#110);
#112=PLANE('',#111);
#113=CARTESIAN_POINT('',(105.,100.,2.));
#114=VERTEX_POINT('',#113);
#115=CARTESIAN_POINT('',(100.,100.,2.));
#116=DIRECTION('',(0.,0.,1.));
#117=DIRECTION('',(1.,0.,-0.));
#118=AXIS2_PLACEMENT_3D('',#115,#116,#117);
#119=CIRCLE('',#118,5.);
#120=EDGE_CURVE('',#114,#114,#119,.T.);
#121=ORIENTED_EDGE('',*,*,#120,.T.);
#122=EDGE_LOOP('',(#121));
#123=FACE_BOUND('',#122,.T.);
#124=ORIENTED_EDGE('',*,*,#66,.F.);
#125=ORIENTED_EDGE('',*,*,#73,.F.);
#126=EDGE_LOOP('',(#124,#125));
#127=FACE_BOUND('',#126,.T.);
#128=ADVANCED_FACE('',(#123,#127),#112,.F.);
#129=CARTESIAN_POINT('',(100.,100.,3.));
#130=DIRECTION('',(0.,0.,1.));
#131=DIRECTION('',(1.,0.,-0.));
#132=AXIS2_PLACEMENT_3D('',#129,#130,#131);
#133=CYLINDRICAL_SURFACE('',#132,55.);
#134=CARTESIAN_POINT('',(155.,100.,3.));
#135=VERTEX_POINT('',#134);
#136=CARTESIAN_POINT('',(155.,100.,22.));
#137=DIRECTION('',(-0.,-0.,-1.));
#138=VECTOR('',#137,19.);
#139=LINE('',#136,#138);
#140=EDGE_CURVE('',#84,#135,#139,.T.);
#141=ORIENTED_EDGE('',*,*,#140,.F.);
#142=ORIENTED_EDGE('',*,*,#92,.T.);
#143=ORIENTED_EDGE('',*,*,#99,.T.);
#144=ORIENTED_EDGE('',*,*,#140,.T.);
#145=CARTESIAN_POINT('',(100.,155.,3.));
#146=VERTEX_POINT('',#145);
#147=CARTESIAN_POINT('',(100.,100.,3.));
#148=DIRECTION('',(0.,-0.,1.));
#149=DIRECTION('',(0.,1.,0.));
#150=AXIS2_PLACEMENT_3D('',#147,#148,#149);
#151=CIRCLE('',#150,55.);
#152=EDGE_CURVE('',#146,#135,#151,.T.);
#153=ORIENTED_EDGE('',*,*,#152,.F.);
#154=CARTESIAN_POINT('',(100.,100.,3.));
#155=DIRECTION('',(0.,-0.,1.));
#156=DIRECTION('',(0.,1.,0.));
#157=AXIS2_PLACEMENT_3D('',#154,#155,#156);
#158=CIRCLE('',#157,55.);
#159=EDGE_CURVE('',#135,#146,#158,.T.);
#160=ORIENTED_EDGE('',*,*,#159,.F.);
#161=EDGE_LOOP('',(#141,#142,#143,#144,#153,#160));
#162=FACE_BOUND('',#161,.T.);
#163=ADVANCED_FACE('',(#162),#133,.F.);
#164=CARTESIAN_POINT('',(0.,-200.,3.));
#165=DIRECTION('',(0.,0.,1.));
#166=DIRECTION('',(0.,1.,0.));
#167=AXIS2_PLACEMENT_3D('',#164,#165,#166);
#168=PLANE('',#167);
#169=CARTESIAN_POINT('',(105.,100.,3.));
#170=VERTEX_POINT('',#169);
#171=CARTESIAN_POINT('',(100.,105.,3.));
#172=VERTEX_POINT('',#171);
#173=CARTESIAN_POINT('',(100.,100.,3.));
#174=DIRECTION('',(0.,-0.,1.));
#175=DIRECTION('',(0.,1.,0.));
#176=AXIS2_PLACEMENT_3D('',#173,#174,#175);
#177=CIRCLE('',#176,5.);
#178=EDGE_CURVE('',#170,#172,#177,.T.);
#179=ORIENTED_EDGE('',*,*,#178,.F.);
#180=CARTESIAN_POINT('',(100.,100.,3.));
#181=DIRECTION('',(0.,-0.,1.));
#182=DIRECTION('',(0.,1.,0.));
#183=AXIS2_PLACEMENT_3D('',#180,#181,#182);
#184=CIRCLE('',#183,5.);
#185=EDGE_CURVE('',#172,#170,#184,.T.);
#186=ORIENTED_EDGE('',*,*,#185,.F.);
#187=EDGE_LOOP('',(#179,#186));
#188=FACE_BOUND('',#187,.T.);
#189=ORIENTED_EDGE('',*,*,#152,.T.);
#190=ORIENTED_EDGE('',*,*,#159,.T.);
#191=EDGE_LOOP('',(#189,#190));
#192=FACE_BOUND('',#191,.T.);
#193=ADVANCED_FACE('',(#188,#192),#168,.T.);
#194=CARTESIAN_POINT('',(100.,100.,-17.));
#195=DIRECTION('',(0.,0.,1.));
#196=DIRECTION('',(1.,0.,-0.));
#197=AXIS2_PLACEMENT_3D('',#194,#195,#196);
#198=CYLINDRICAL_SURFACE('',#197,5.);
#199=CARTESIAN_POINT('',(105.,100.,3.));
#200=DIRECTION('',(-0.,-0.,-1.));
#201=VECTOR('',#200,1.);
#202=LINE('',#199,#201);
#203=EDGE_CURVE('',#170,#114,#202,.T.);
#204=ORIENTED_EDGE('',*,*,#203,.F.);
#205=ORIENTED_EDGE('',*,*,#178,.T.);
#206=ORIENTED_EDGE('',*,*,#185,.T.);
#207=ORIENTED_EDGE('',*,*,#203,.T.);
#208=ORIENTED_EDGE('',*,*,#120,.F.);
#209=EDGE_LOOP('',(#204,#205,#206,#207,#208));
#210=FACE_BOUND('',#209,.T.);
#211=ADVANCED_FACE('',(#210),#198,.F.);
#212=CLOSED_SHELL('',(#77,#107,#128,#163,#193,#211));
#213=MANIFOLD_SOLID_BREP('Body 03',#212);
#214=COLOUR_RGB('',0.627451003,0.627451003,0.643137276);
#215=FILL_AREA_STYLE_COLOUR('',#214);
#216=FILL_AREA_STYLE('',(#215));
#217=SURFACE_STYLE_FILL_AREA(#216);
#218=SURFACE_SIDE_STYLE('',(#217));
#219=SURFACE_STYLE_USAGE(.BOTH.,#218);
#220=PRESENTATION_STYLE_ASSIGNMENT((#219));
#26=STYLED_ITEM('',(#220),#213);
#222=CARTESIAN_POINT('',(100.,100.,1.));
#223=DIRECTION('',(0.,0.,-1.));
#224=DIRECTION('',(-1.,0.,0.));
#225=AXIS2_PLACEMENT_3D('',#222,#223,#224);
#226=CYLINDRICAL_SURFACE('',#225,5.);
#227=CARTESIAN_POINT('',(95.,100.,0.));
#228=VERTEX_POINT('',#227);
#229=CARTESIAN_POINT('',(95.,100.,2.));
#230=VERTEX_POINT('',#229);
#231=CARTESIAN_POINT('',(95.,100.,0.));
#232=DIRECTION('',(-0.,-0.,1.));
#233=VECTOR('',#232,2.);
#234=LINE('',#231,#233);
#235=EDGE_CURVE('',#228,#230,#234,.T.);
#236=ORIENTED_EDGE('',*,*,#235,.F.);
#237=CARTESIAN_POINT('',(105.,100.,0.));
#238=VERTEX_POINT('',#237);
#239=CARTESIAN_POINT('',(100.,100.,0.));
#240=DIRECTION('',(0.,0.,1.));
#241=DIRECTION('',(1.,0.,-0.));
#242=AXIS2_PLACEMENT_3D('',#239,#240,#241);
#243=CIRCLE('',#242,5.);
#244=EDGE_CURVE('',#238,#228,#243,.T.);
#245=ORIENTED_EDGE('',*,*,#244,.F.);
#246=CARTESIAN_POINT('',(100.,100.,0.));
#247=DIRECTION('',(0.,0.,1.));
#248=DIRECTION('',(1.,0.,-0.));
#249=AXIS2_PLACEMENT_3D('',#246,#247,#248);
#250=CIRCLE('',#249,5.);
#251=EDGE_CURVE('',#228,#238,#250,.T.);
#252=ORIENTED_EDGE('',*,*,#251,.F.);
#253=ORIENTED_EDGE('',*,*,#235,.T.);
#254=CARTESIAN_POINT('',(105.,100.,2.));
#255=VERTEX_POINT('',#254);
#256=CARTESIAN_POINT('',(100.,100.,2.));
#257=DIRECTION('',(0.,0.,1.));
#258=DIRECTION('',(1.,0.,-0.));
#259=AXIS2_PLACEMENT_3D('',#256,#257,#258);
#260=CIRCLE('',#259,5.);
#261=EDGE_CURVE('',#230,#255,#260,.T.);
#262=ORIENTED_EDGE('',*,*,#261,.T.);
#263=CARTESIAN_POINT('',(100.,100.,2.));
#264=DIRECTION('',(0.,0.,1.));
#265=DIRECTION('',(1.,0.,-0.));
#266=AXIS2_PLACEMENT_3D('',#263,#264,#265);
#267=CIRCLE('',#266,5.);
#268=EDGE_CURVE('',#255,#230,#267,.T.);
#269=ORIENTED_EDGE('',*,*,#268,.T.);
#270=EDGE_LOOP('',(#236,#245,#252,#253,#262,#269));
#271=FACE_BOUND('',#270,.T.);
#272=ADVANCED_FACE('',(#271),#226,.F.);
#273=CARTESIAN_POINT('',(100.,100.,1.));
#274=DIRECTION('',(0.,0.,-1.));
#275=DIRECTION('',(-1.,0.,0.));
#276=AXIS2_PLACEMENT_3D('',#273,#274,#275);
#277=CYLINDRICAL_SURFACE('',#276,60.);
#278=CARTESIAN_POINT('',(40.,100.,0.));
#279=VERTEX_POINT('',#278);
#280=CARTESIAN_POINT('',(40.,100.,2.));
#281=VERTEX_POINT('',#280);
#282=CARTESIAN_POINT('',(40.,100.,0.));
#283=DIRECTION('',(-0.,-0.,1.));
#284=VECTOR('',#283,2.);
#285=LINE('',#282,#284);
#286=EDGE_CURVE('',#279,#281,#285,.T.);
#287=ORIENTED_EDGE('',*,*,#286,.T.);
#288=CARTESIAN_POINT('',(160.,100.,2.));
#289=VERTEX_POINT('',#288);
#290=CARTESIAN_POINT('',(100.,100.,2.));
#291=DIRECTION('',(0.,0.,1.));
#292=DIRECTION('',(1.,0.,-0.));
#293=AXIS2_PLACEMENT_3D('',#290,#291,#292);
#294=CIRCLE('',#293,60.);
#295=EDGE_CURVE('',#289,#281,#294,.T.);
#296=ORIENTED_EDGE('',*,*,#295,.F.);
#297=CARTESIAN_POINT('',(100.,100.,2.));
#298=DIRECTION('',(0.,0.,1.));
#299=DIRECTION('',(1.,0.,-0.));
#300=AXIS2_PLACEMENT_3D('',#297,#298,#299);
#301=CIRCLE('',#300,60.);
#302=EDGE_CURVE('',#281,#289,#301,.T.);
#303=ORIENTED_EDGE('',*,*,#302,.F.);
#304=ORIENTED_EDGE('',*,*,#286,.F.);
#305=CARTESIAN_POINT('',(160.,100.,0.));
#306=VERTEX_POINT('',#305);
#307=CARTESIAN_POINT('',(100.,100.,0.));
#308=DIRECTION('',(0.,0.,1.));
#309=DIRECTION('',(1.,0.,-0.));
#310=AXIS2_PLACEMENT_3D('',#307,#308,#309);
#311=CIRCLE('',#310,60.);
#312=EDGE_CURVE('',#279,#306,#311,.T.);
#313=ORIENTED_EDGE('',*,*,#312,.T.);
#314=CARTESIAN_POINT('',(100.,100.,0.));
#315=DIRECTION('',(0.,0.,1.));
#316=DIRECTION('',(1.,0.,-0.));
#317=AXIS2_PLACEMENT_3D('',#314,#315,#316);
#318=CIRCLE('',#317,60.);
#319=EDGE_CURVE('',#306,#279,#318,.T.);
#320=ORIENTED_EDGE('',*,*,#319,.T.);
#321=EDGE_LOOP('',(#287,#296,#303,#304,#313,#320));
#322=FACE_BOUND('',#321,.T.);
#323=ADVANCED_FACE('',(#322),#277,.T.);
#324=CARTESIAN_POINT('',(0.,0.,2.));
#325=DIRECTION('',(0.,0.,1.));
#326=DIRECTION('',(1.,0.,0.));
#327=AXIS2_PLACEMENT_3D('',#324,#325,#326);
#328=PLANE('',#327);
#329=ORIENTED_EDGE('',*,*,#261,.F.);
#330=ORIENTED_EDGE('',*,*,#268,.F.);
#331=EDGE_LOOP('',(#329,#330));
#332=FACE_BOUND('',#331,.T.);
#333=ORIENTED_EDGE('',*,*,#295,.T.);
#334=ORIENTED_EDGE('',*,*,#302,.T.);
#335=EDGE_LOOP('',(#333,#334));
#336=FACE_BOUND('',#335,.T.);
#337=ADVANCED_FACE('',(#332,#336),#328,.T.);
#338=CARTESIAN_POINT('',(0.,0.,0.));
#339=DIRECTION('',(0.,0.,1.));
#340=DIRECTION('',(1.,0.,0.));
#341=AXIS2_PLACEMENT_3D('',#338,#339,#340);
#342=PLANE('',#341);
#343=ORIENTED_EDGE('',*,*,#244,.T.);
#344=ORIENTED_EDGE('',*,*,#251,.T.);
#345=EDGE_LOOP('',(#343,#344));
#346=FACE_BOUND('',#345,.T.);
#347=ORIENTED_EDGE('',*,*,#312,.F.);
#348=ORIENTED_EDGE('',*,*,#319,.F.);
#349=EDGE_LOOP('',(#347,#348));
#350=FACE_BOUND('',#349,.T.);
#351=ADVANCED_FACE('',(#346,#350),#342,.F.);
#352=CLOSED_SHELL('',(#272,#323,#337,#351));
#353=MANIFOLD_SOLID_BREP('Body 02',#352);
#221=STYLED_ITEM('',(#220),#353);
#355=CARTESIAN_POINT('',(100.,100.,50.));
#356=DIRECTION('',(0.,0.,-1.));
#357=DIRECTION('',(-1.,0.,0.));
#358=AXIS2_PLACEMENT_3D('',#355,#356,#357);
#359=CYLINDRICAL_SURFACE('',#358,5.);
#360=CARTESIAN_POINT('',(95.,100.,0.));
#361=VERTEX_POINT('',#360);
#362=CARTESIAN_POINT('',(95.,100.,45.));
#363=VERTEX_POINT('',#362);
#364=CARTESIAN_POINT('',(95.,100.,-0.));
#365=DIRECTION('',(-0.,-0.,1.));
#366=VECTOR('',#365,45.);
#367=LINE('',#364,#366);
#368=EDGE_CURVE('',#361,#363,#367,.T.);
#369=ORIENTED_EDGE('',*,*,#368,.T.);
#370=CARTESIAN_POINT('',(105.,100.,45.));
#371=VERTEX_POINT('',#370);
#372=CARTESIAN_POINT('',(100.,100.,45.));
#373=DIRECTION('',(0.,0.,-1.));
#374=DIRECTION('',(-1.,0.,0.));
#375=AXIS2_PLACEMENT_3D('',#372,#373,#374);
#376=CIRCLE('',#375,5.);
#377=EDGE_CURVE('',#363,#371,#376,.T.);
#378=ORIENTED_EDGE('',*,*,#377,.T.);
#379=CARTESIAN_POINT('',(100.,100.,45.));
#380=DIRECTION('',(0.,0.,-1.));
#381=DIRECTION('',(-1.,0.,0.));
#382=AXIS2_PLACEMENT_3D('',#379,#380,#381);
#383=CIRCLE('',#382,5.);
#384=EDGE_CURVE('',#371,#363,#383,.T.);
#385=ORIENTED_EDGE('',*,*,#384,.T.);
#386=ORIENTED_EDGE('',*,*,#368,.F.);
#387=CARTESIAN_POINT('',(105.,100.,0.));
#388=VERTEX_POINT('',#387);
#389=CARTESIAN_POINT('',(100.,100.,0.));
#390=DIRECTION('',(0.,0.,1.));
#391=DIRECTION('',(1.,0.,-0.));
#392=AXIS2_PLACEMENT_3D('',#389,#390,#391);
#393=CIRCLE('',#392,5.);
#394=EDGE_CURVE('',#361,#388,#393,.T.);
#395=ORIENTED_EDGE('',*,*,#394,.T.);
#396=CARTESIAN_POINT('',(100.,100.,0.));
#397=DIRECTION('',(0.,0.,1.));
#398=DIRECTION('',(1.,0.,-0.));
#399=AXIS2_PLACEMENT_3D('',#396,#397,#398);
#400=CIRCLE('',#399,5.);
#401=EDGE_CURVE('',#388,#361,#400,.T.);
#402=ORIENTED_EDGE('',*,*,#401,.T.);
#403=EDGE_LOOP('',(#369,#378,#385,#386,#395,#402));
#404=FACE_BOUND('',#403,.T.);
#405=ADVANCED_FACE('',(#404),#359,.T.);
#406=CARTESIAN_POINT('',(0.,0.,0.));
#407=DIRECTION('',(0.,0.,1.));
#408=DIRECTION('',(1.,0.,0.));
#409=AXIS2_PLACEMENT_3D('',#406,#407,#408);
#410=PLANE('',#409);
#411=ORIENTED_EDGE('',*,*,#394,.F.);
#412=ORIENTED_EDGE('',*,*,#401,.F.);
#413=EDGE_LOOP('',(#411,#412));
#414=FACE_BOUND('',#413,.T.);
#415=ADVANCED_FACE('',(#414),#410,.F.);
#416=CARTESIAN_POINT('',(100.,100.,45.));
#417=DIRECTION('',(0.,0.,1.));
#418=DIRECTION('',(1.,0.,-0.));
#419=AXIS2_PLACEMENT_3D('',#416,#417,#418);
#420=SPHERICAL_SURFACE('',#419,5.);
#421=CARTESIAN_POINT('',(100.,100.,50.));
#422=VERTEX_POINT('',#421);
#423=CARTESIAN_POINT('',(100.,100.,45.));
#424=DIRECTION('',(-0.,1.,-0.));
#425=DIRECTION('',(1.,0.,0.));
#426=AXIS2_PLACEMENT_3D('',#423,#424,#425);
#427=CIRCLE('',#426,5.);
#428=EDGE_CURVE('',#422,#371,#427,.T.);
#429=ORIENTED_EDGE('',*,*,#428,.T.);
#430=ORIENTED_EDGE('',*,*,#377,.F.);
#431=ORIENTED_EDGE('',*,*,#384,.F.);
#432=ORIENTED_EDGE('',*,*,#428,.F.);
#433=EDGE_LOOP('',(#429,#430,#431,#432));
#434=FACE_BOUND('',#433,.T.);
#435=ADVANCED_FACE('',(#434),#420,.T.);
#436=CLOSED_SHELL('',(#405,#415,#435));
#437=MANIFOLD_SOLID_BREP('Body 01',#436);
#354=STYLED_ITEM('',(#220),#437);
#438=(NAMED_UNIT(*)PLANE_ANGLE_UNIT()SI_UNIT($,.RADIAN.));
#439=PLANE_ANGLE_MEASURE_WITH_UNIT(PLANE_ANGLE_MEASURE(0.0174532925),#438);
#440=(CONVERSION_BASED_UNIT('DEGREE',#439)NAMED_UNIT(#441)PLANE_ANGLE_UNIT());
#441=DIMENSIONAL_EXPONENTS(0.,0.,0.,0.,0.,0.,0.);
#442=(NAMED_UNIT(*)SI_UNIT($,.STERADIAN.)SOLID_ANGLE_UNIT());
#443=(LENGTH_UNIT()NAMED_UNIT(*)SI_UNIT(.MILLI.,.METRE.));
#444=UNCERTAINTY_MEASURE_WITH_UNIT(LENGTH_MEASURE(1.000000E-05),#443,'DISTANCE_ACCURACY_VALUE','Maximum Tolerance applied to model');
#445=(GEOMETRIC_REPRESENTATION_CONTEXT(3)GLOBAL_UNCERTAINTY_ASSIGNED_CONTEXT((#444))GLOBAL_UNIT_ASSIGNED_CONTEXT((#443,#440,#442))REPRESENTATION_CONTEXT('','Circular Pattern 02'));
#457=CARTESIAN_POINT('',(0.,0.,0.));
#458=DIRECTION('',(0.,0.,1.));
#459=DIRECTION('',(1.,0.,-0.));
#460=AXIS2_PLACEMENT_3D('',#457,#458,#459);
#461=ITEM_DEFINED_TRANSFORMATION('','',#460,#15);
#462=(REPRESENTATION_RELATIONSHIP('','',#447,#16)REPRESENTATION_RELATIONSHIP_WITH_TRANSFORMATION(#461)SHAPE_REPRESENTATION_RELATIONSHIP());
#463=NEXT_ASSEMBLY_USAGE_OCCURRENCE('Circular Pattern 02_1','Circular Pattern 02','Circular Pattern 02',#25,#456,$);
#464=PRODUCT_DEFINITION_SHAPE('','',#463);
#465=CONTEXT_DEPENDENT_SHAPE_REPRESENTATION(#462,#464);
#467=CARTESIAN_POINT('',(100.,99.998808563,22.));
#468=DIRECTION('',(-0.,0.,-1.));
#469=DIRECTION('',(-0.,-1.,0.));
#470=AXIS2_PLACEMENT_3D('',#467,#468,#469);
#471=CYLINDRICAL_SURFACE('',#470,5.);
#472=CARTESIAN_POINT('',(100.,94.998808563,3.));
#473=VERTEX_POINT('',#472);
#474=CARTESIAN_POINT('',(100.,94.998808563,22.));
#475=VERTEX_POINT('',#474);
#476=CARTESIAN_POINT('',(100.,94.998808563,3.));
#477=DIRECTION('',(-0.,-0.,1.));
#478=VECTOR('',#477,19.);
#479=LINE('',#476,#478);
#480=EDGE_CURVE('',#473,#475,#479,.T.);
#481=ORIENTED_EDGE('',*,*,#480,.F.);
#482=CARTESIAN_POINT('',(97.299897373,95.790549326,3.));
#483=VERTEX_POINT('',#482);
#484=CARTESIAN_POINT('',(100.,99.998808563,3.));
#485=DIRECTION('',(0.,0.,1.));
#486=DIRECTION('',(-1.,0.,0.));
#487=AXIS2_PLACEMENT_3D('',#484,#485,#486);
#488=CIRCLE('',#487,5.);
#489=EDGE_CURVE('',#483,#473,#488,.T.);
#490=ORIENTED_EDGE('',*,*,#489,.F.);
#491=CARTESIAN_POINT('',(97.299897373,95.790549326,21.));
#492=VERTEX_POINT('',#491);
#493=CARTESIAN_POINT('',(97.299897373,95.790549326,21.));
#494=DIRECTION('',(0.,0.,-1.));
#495=VECTOR('',#494,18.);
#496=LINE('',#493,#495);
#497=EDGE_CURVE('',#492,#483,#496,.T.);
#498=ORIENTED_EDGE('',*,*,#497,.F.);
#499=CARTESIAN_POINT('',(98.299897373,95.296718489,22.));
#500=VERTEX_POINT('',#499);
#501=CARTESIAN_POINT('',(97.299897373,95.790549326,21.));
#502=CARTESIAN_POINT('',(97.299897373,95.790549326,21.069778196));
#503=CARTESIAN_POINT('',(97.307118227,95.785892457,21.138013521));
#504=CARTESIAN_POINT('',(97.321097454,95.777022075,21.204818748));
#505=CARTESIAN_POINT('',(97.335076682,95.768151692,21.271623974));
#506=CARTESIAN_POINT('',(97.356171925,95.754853556,21.337430509));
#507=CARTESIAN_POINT('',(97.38285637,95.738461251,21.398792927));
#508=CARTESIAN_POINT('',(97.436225261,95.705676639,21.521517763));
#509=CARTESIAN_POINT('',(97.513332445,95.659733593,21.630717788));
#510=CARTESIAN_POINT('',(97.605770334,95.609313796,21.719852522));
#511=CARTESIAN_POINT('',(97.651989278,95.584103898,21.764419889));
#512=CARTESIAN_POINT('',(97.702748114,95.557391505,21.804636822));
#513=CARTESIAN_POINT('',(97.756004947,95.530644935,21.83915495));
#514=CARTESIAN_POINT('',(97.809261781,95.503898364,21.873673077));
#515=CARTESIAN_POINT('',(97.865330965,95.476928946,21.902887518));
#516=CARTESIAN_POINT('',(97.92434042,95.450002422,21.926799318));
#517=CARTESIAN_POINT('',(97.983349875,95.423075897,21.950711117));
#518=CARTESIAN_POINT('',(98.045155179,95.396291759,21.969113057));
#519=CARTESIAN_POINT('',(98.10779209,95.370682676,21.981374322));
#520=CARTESIAN_POINT('',(98.170429,95.345073593,21.993635587));
#521=CARTESIAN_POINT('',(98.234426507,95.320390344,22.));
#522=CARTESIAN_POINT('',(98.299897373,95.296718489,22.));
#523=B_SPLINE_CURVE_WITH_KNOTS('',3,(#501,#502,#503,#504,#505,#506,#507,#508,#509,#510,#511,#512,#513,#514,#515,#516,#517,#518,#519,#520,#521,#522),.UNSPECIFIED.,.F.,.F.,(4,3,3,3,3,3,3,4),(0.,0.000206039,0.000412078,0.000824156,0.001030195,0.001236234,0.001442273,0.001648312),.UNSPECIFIED.);
#524=EDGE_CURVE('',#492,#500,#523,.T.);
#525=ORIENTED_EDGE('',*,*,#524,.T.);
#526=CARTESIAN_POINT('',(100.,99.998808563,22.));
#527=DIRECTION('',(0.,0.,1.));
#528=DIRECTION('',(-1.,0.,0.));
#529=AXIS2_PLACEMENT_3D('',#526,#527,#528);
#530=CIRCLE('',#529,5.);
#531=EDGE_CURVE('',#500,#475,#530,.T.);
#532=ORIENTED_EDGE('',*,*,#531,.T.);
#533=EDGE_LOOP('',(#481,#490,#498,#525,#532));
#534=FACE_BOUND('',#533,.T.);
#535=ADVANCED_FACE('',(#534),#471,.F.);
#536=CARTESIAN_POINT('',(97.299897373,70.225732811,22.));
#537=DIRECTION('',(1.,-0.,0.));
#538=DIRECTION('',(0.,0.,-1.));
#539=AXIS2_PLACEMENT_3D('',#536,#537,#538);
#540=PLANE('',#539);
#541=CARTESIAN_POINT('',(97.299897373,45.035187962,21.));
#542=VERTEX_POINT('',#541);
#543=CARTESIAN_POINT('',(97.299897373,45.035187962,3.));
#544=VERTEX_POINT('',#543);
#545=CARTESIAN_POINT('',(97.299897373,45.035187962,21.));
#546=DIRECTION('',(0.,0.,-1.));
#547=VECTOR('',#546,18.);
#548=LINE('',#545,#547);
#549=EDGE_CURVE('',#542,#544,#548,.T.);
#550=ORIENTED_EDGE('',*,*,#549,.F.);
#551=CARTESIAN_POINT('',(97.299897373,45.035187962,21.));
#552=DIRECTION('',(0.,1.,-0.));
#553=VECTOR('',#552,50.755361363);
#554=LINE('',#551,#553);
#555=EDGE_CURVE('',#542,#492,#554,.T.);
#556=ORIENTED_EDGE('',*,*,#555,.T.);
#557=ORIENTED_EDGE('',*,*,#497,.T.);
#558=CARTESIAN_POINT('',(97.299897373,95.790549326,3.));
#559=DIRECTION('',(-0.,-1.,0.));
#560=VECTOR('',#559,50.755361363);
#561=LINE('',#558,#560);
#562=EDGE_CURVE('',#483,#544,#561,.T.);
#563=ORIENTED_EDGE('',*,*,#562,.T.);
#564=EDGE_LOOP('',(#550,#556,#557,#563));
#565=FACE_BOUND('',#564,.T.);
#566=ADVANCED_FACE('',(#565),#540,.F.);
#567=CARTESIAN_POINT('',(100.,45.035187962,22.));
#568=DIRECTION('',(-0.,-1.,0.));
#569=DIRECTION('',(0.,0.,1.));
#570=AXIS2_PLACEMENT_3D('',#567,#568,#569);
#571=PLANE('',#570);
#572=CARTESIAN_POINT('',(101.000102627,45.035187962,22.));
#573=VERTEX_POINT('',#572);
#574=CARTESIAN_POINT('',(98.299897373,45.035187962,22.));
#575=VERTEX_POINT('',#574);
#576=CARTESIAN_POINT('',(101.000102627,45.035187962,22.));
#577=DIRECTION('',(-1.,0.,0.));
#578=VECTOR('',#577,2.700205254);
#579=LINE('',#576,#578);
#580=EDGE_CURVE('',#573,#575,#579,.T.);
#581=ORIENTED_EDGE('',*,*,#580,.T.);
#582=CARTESIAN_POINT('',(98.299897373,45.035187962,21.));
#583=DIRECTION('',(-0.,-1.,0.));
#584=DIRECTION('',(0.,0.,1.));
#585=AXIS2_PLACEMENT_3D('',#582,#583,#584);
#586=CIRCLE('',#585,1.);
#587=EDGE_CURVE('',#575,#542,#586,.T.);
#588=ORIENTED_EDGE('',*,*,#587,.T.);
#589=ORIENTED_EDGE('',*,*,#549,.T.);
#590=CARTESIAN_POINT('',(102.000102627,45.035187962,3.));
#591=VERTEX_POINT('',#590);
#592=CARTESIAN_POINT('',(102.000102627,45.035187962,3.));
#593=DIRECTION('',(-1.,0.,0.));
#594=VECTOR('',#593,4.700205254);
#595=LINE('',#592,#594);
#596=EDGE_CURVE('',#591,#544,#595,.T.);
#597=ORIENTED_EDGE('',*,*,#596,.F.);
#598=CARTESIAN_POINT('',(102.000102627,45.035187962,21.));
#599=VERTEX_POINT('',#598);
#600=CARTESIAN_POINT('',(102.000102627,45.035187962,21.));
#601=DIRECTION('',(0.,0.,-1.));
#602=VECTOR('',#601,18.);
#603=LINE('',#600,#602);
#604=EDGE_CURVE('',#599,#591,#603,.T.);
#605=ORIENTED_EDGE('',*,*,#604,.F.);
#606=CARTESIAN_POINT('',(101.000102627,45.035187962,21.));
#607=DIRECTION('',(-0.,-1.,0.));
#608=DIRECTION('',(0.,0.,1.));
#609=AXIS2_PLACEMENT_3D('',#606,#607,#608);
#610=CIRCLE('',#609,1.);
#611=EDGE_CURVE('',#599,#573,#610,.T.);
#612=ORIENTED_EDGE('',*,*,#611,.T.);
#613=EDGE_LOOP('',(#581,#588,#589,#597,#605,#612));
#614=FACE_BOUND('',#613,.T.);
#615=ADVANCED_FACE('',(#614),#571,.T.);
#616=CARTESIAN_POINT('',(102.000102627,70.225732811,22.));
#617=DIRECTION('',(1.,-0.,0.));
#618=DIRECTION('',(0.,0.,-1.));
#619=AXIS2_PLACEMENT_3D('',#616,#617,#618);
#620=PLANE('',#619);
#621=CARTESIAN_POINT('',(102.000102627,95.416277659,21.));
#622=VERTEX_POINT('',#621);
#623=CARTESIAN_POINT('',(102.000102627,95.416277659,3.));
#624=VERTEX_POINT('',#623);
#625=CARTESIAN_POINT('',(102.000102627,95.416277659,21.));
#626=DIRECTION('',(0.,0.,-1.));
#627=VECTOR('',#626,18.);
#628=LINE('',#625,#627);
#629=EDGE_CURVE('',#622,#624,#628,.T.);
#630=ORIENTED_EDGE('',*,*,#629,.F.);
#631=CARTESIAN_POINT('',(102.000102627,95.416277659,21.));
#632=DIRECTION('',(-0.,-1.,0.));
#633=VECTOR('',#632,50.381089697);
#634=LINE('',#631,#633);
#635=EDGE_CURVE('',#622,#599,#634,.T.);
#636=ORIENTED_EDGE('',*,*,#635,.T.);
#637=ORIENTED_EDGE('',*,*,#604,.T.);
#638=CARTESIAN_POINT('',(102.000102627,95.416277659,3.));
#639=DIRECTION('',(-0.,-1.,0.));
#640=VECTOR('',#639,50.381089697);
#641=LINE('',#638,#640);
#642=EDGE_CURVE('',#624,#591,#641,.T.);
#643=ORIENTED_EDGE('',*,*,#642,.F.);
#644=EDGE_LOOP('',(#630,#636,#637,#643));
#645=FACE_BOUND('',#644,.T.);
#646=ADVANCED_FACE('',(#645),#620,.T.);
#647=CARTESIAN_POINT('',(400.,-0.001191437,22.));
#648=DIRECTION('',(0.,0.,1.));
#649=DIRECTION('',(-1.,0.,0.));
#650=AXIS2_PLACEMENT_3D('',#647,#648,#649);
#651=PLANE('',#650);
#652=CARTESIAN_POINT('',(101.000102627,95.099850027,22.));
#653=VERTEX_POINT('',#652);
#654=CARTESIAN_POINT('',(100.,99.998808563,22.));
#655=DIRECTION('',(0.,0.,1.));
#656=DIRECTION('',(-1.,0.,0.));
#657=AXIS2_PLACEMENT_3D('',#654,#655,#656);
#658=CIRCLE('',#657,5.);
#659=EDGE_CURVE('',#475,#653,#658,.T.);
#660=ORIENTED_EDGE('',*,*,#659,.F.);
#661=ORIENTED_EDGE('',*,*,#531,.F.);
#662=CARTESIAN_POINT('',(98.299897373,95.296718489,22.));
#663=DIRECTION('',(-0.,-1.,0.));
#664=VECTOR('',#663,50.261530527);
#665=LINE('',#662,#664);
#666=EDGE_CURVE('',#500,#575,#665,.T.);
#667=ORIENTED_EDGE('',*,*,#666,.T.);
#668=ORIENTED_EDGE('',*,*,#580,.F.);
#669=CARTESIAN_POINT('',(101.000102627,45.035187962,22.));
#670=DIRECTION('',(0.,1.,-0.));
#671=VECTOR('',#670,50.064662064);
#672=LINE('',#669,#671);
#673=EDGE_CURVE('',#573,#653,#672,.T.);
#674=ORIENTED_EDGE('',*,*,#673,.T.);
#675=EDGE_LOOP('',(#660,#661,#667,#668,#674));
#676=FACE_BOUND('',#675,.T.);
#677=ADVANCED_FACE('',(#676),#651,.T.);
#678=CARTESIAN_POINT('',(400.,-0.001191437,3.));
#679=DIRECTION('',(0.,0.,1.));
#680=DIRECTION('',(-1.,0.,0.));
#681=AXIS2_PLACEMENT_3D('',#678,#679,#680);
#682=PLANE('',#681);
#683=ORIENTED_EDGE('',*,*,#489,.T.);
#684=CARTESIAN_POINT('',(100.,99.998808563,3.));
#685=DIRECTION('',(0.,0.,1.));
#686=DIRECTION('',(-1.,0.,0.));
#687=AXIS2_PLACEMENT_3D('',#684,#685,#686);
#688=CIRCLE('',#687,5.);
#689=EDGE_CURVE('',#473,#624,#688,.T.);
#690=ORIENTED_EDGE('',*,*,#689,.T.);
#691=ORIENTED_EDGE('',*,*,#642,.T.);
#692=ORIENTED_EDGE('',*,*,#596,.T.);
#693=ORIENTED_EDGE('',*,*,#562,.F.);
#694=EDGE_LOOP('',(#683,#690,#691,#692,#693));
#695=FACE_BOUND('',#694,.T.);
#696=ADVANCED_FACE('',(#695),#682,.F.);
#697=CARTESIAN_POINT('',(98.299897373,-0.001191437,21.));
#698=DIRECTION('',(0.,1.,0.));
#699=DIRECTION('',(0.,0.,-1.));
#700=AXIS2_PLACEMENT_3D('',#697,#698,#699);
#701=CYLINDRICAL_SURFACE('',#700,1.);
#702=ORIENTED_EDGE('',*,*,#524,.F.);
#703=ORIENTED_EDGE('',*,*,#555,.F.);
#704=ORIENTED_EDGE('',*,*,#587,.F.);
#705=ORIENTED_EDGE('',*,*,#666,.F.);
#706=EDGE_LOOP('',(#702,#703,#704,#705));
#707=FACE_BOUND('',#706,.T.);
#708=ADVANCED_FACE('',(#707),#701,.T.);
#709=CARTESIAN_POINT('',(101.000102627,70.225732811,21.));
#710=DIRECTION('',(-0.,-1.,0.));
#711=DIRECTION('',(0.,0.,1.));
#712=AXIS2_PLACEMENT_3D('',#709,#710,#711);
#713=CYLINDRICAL_SURFACE('',#712,1.);
#714=CARTESIAN_POINT('',(101.000102627,95.099850027,22.));
#715=CARTESIAN_POINT('',(101.066304962,95.113364966,22.));
#716=CARTESIAN_POINT('',(101.131106754,95.127989941,21.993493285));
#717=CARTESIAN_POINT('',(101.194608074,95.143614277,21.980901438));
#718=CARTESIAN_POINT('',(101.258109393,95.159238614,21.968309591));
#719=CARTESIAN_POINT('',(101.320891342,95.17603552,21.949368891));
#720=CARTESIAN_POINT('',(101.380864468,95.193268705,21.924673142));
#721=CARTESIAN_POINT('',(101.440837594,95.210501891,21.899977394));
#722=CARTESIAN_POINT('',(101.497630523,95.228033052,21.869836564));
#723=CARTESIAN_POINT('',(101.551375175,95.245574394,21.834325223));
#724=CARTESIAN_POINT('',(101.605119827,95.263115735,21.798813882));
#725=CARTESIAN_POINT('',(101.656187322,95.28081738,21.757451942));
#726=CARTESIAN_POINT('',(101.702225515,95.29748659,21.712055791));
#727=CARTESIAN_POINT('',(101.748263709,95.314155799,21.66665964));
#728=CARTESIAN_POINT('',(101.789728959,95.329929338,21.617059906));
#729=CARTESIAN_POINT('',(101.826531779,95.344371791,21.563040724));
#730=CARTESIAN_POINT('',(101.863334599,95.358814244,21.509021541));
#731=CARTESIAN_POINT('',(101.895318187,95.371872385,21.450449252));
#732=CARTESIAN_POINT('',(101.920934095,95.382531686,21.389960776));
#733=CARTESIAN_POINT('',(101.972165912,95.403850288,21.268983824));
#734=CARTESIAN_POINT('',(102.000102627,95.416277659,21.135286538));
#735=CARTESIAN_POINT('',(102.000102627,95.416277659,21.));
#736=B_SPLINE_CURVE_WITH_KNOTS('',3,(#714,#715,#716,#717,#718,#719,#720,#721,#722,#723,#724,#725,#726,#727,#728,#729,#730,#731,#732,#733,#734,#735),.UNSPECIFIED.,.F.,.F.,(4,3,3,3,3,3,3,4),(0.,0.000199737,0.000399473,0.00059921,0.000798946,0.000998683,0.001198419,0.001597893),.UNSPECIFIED.);
#737=EDGE_CURVE('',#653,#622,#736,.T.);
#738=ORIENTED_EDGE('',*,*,#737,.F.);
#739=ORIENTED_EDGE('',*,*,#673,.F.);
#740=ORIENTED_EDGE('',*,*,#611,.F.);
#741=ORIENTED_EDGE('',*,*,#635,.F.);
#742=EDGE_LOOP('',(#738,#739,#740,#741));
#743=FACE_BOUND('',#742,.T.);
#744=ADVANCED_FACE('',(#743),#713,.T.);
#745=CARTESIAN_POINT('',(100.,99.998808563,22.));
#746=DIRECTION('',(-0.,0.,-1.));
#747=DIRECTION('',(-0.,-1.,0.));
#748=AXIS2_PLACEMENT_3D('',#745,#746,#747);
#749=CYLINDRICAL_SURFACE('',#748,5.);
#750=ORIENTED_EDGE('',*,*,#480,.T.);
#751=ORIENTED_EDGE('',*,*,#659,.T.);
#752=ORIENTED_EDGE('',*,*,#737,.T.);
#753=ORIENTED_EDGE('',*,*,#629,.T.);
#754=ORIENTED_EDGE('',*,*,#689,.F.);
#755=EDGE_LOOP('',(#750,#751,#752,#753,#754));
#756=FACE_BOUND('',#755,.T.);
#757=ADVANCED_FACE('',(#756),#749,.F.);
#758=CLOSED_SHELL('',(#535,#566,#615,#646,#677,#696,#708,#744,#757));
#759=MANIFOLD_SOLID_BREP('Body 04',#758);
#466=STYLED_ITEM('',(#220),#759);
#761=CARTESIAN_POINT('',(99.998808563,100.,22.));
#762=DIRECTION('',(0.,0.,-1.));
#763=DIRECTION('',(-1.,0.,0.));
#764=AXIS2_PLACEMENT_3D('',#761,#762,#763);
#765=CYLINDRICAL_SURFACE('',#764,5.);
#766=CARTESIAN_POINT('',(94.998808563,100.,3.));
#767=VERTEX_POINT('',#766);
#768=CARTESIAN_POINT('',(94.998808563,100.,22.));
#769=VERTEX_POINT('',#768);
#770=CARTESIAN_POINT('',(94.998808563,100.,3.));
#771=DIRECTION('',(-0.,-0.,1.));
#772=VECTOR('',#771,19.);
#773=LINE('',#770,#772);
#774=EDGE_CURVE('',#767,#769,#773,.T.);
#775=ORIENTED_EDGE('',*,*,#774,.F.);
#776=CARTESIAN_POINT('',(95.790549326,102.700102627,3.));
#777=VERTEX_POINT('',#776);
#778=CARTESIAN_POINT('',(99.998808563,100.,3.));
#779=DIRECTION('',(0.,-0.,1.));
#780=DIRECTION('',(0.,1.,0.));
#781=AXIS2_PLACEMENT_3D('',#778,#779,#780);
#782=CIRCLE('',#781,5.);
#783=EDGE_CURVE('',#777,#767,#782,.T.);
#784=ORIENTED_EDGE('',*,*,#783,.F.);
#785=CARTESIAN_POINT('',(95.790549326,102.700102627,21.));
#786=VERTEX_POINT('',#785);
#787=CARTESIAN_POINT('',(95.790549326,102.700102627,21.));
#788=DIRECTION('',(0.,0.,-1.));
#789=VECTOR('',#788,18.);
#790=LINE('',#787,#789);
#791=EDGE_CURVE('',#786,#777,#790,.T.);
#792=ORIENTED_EDGE('',*,*,#791,.F.);
#793=CARTESIAN_POINT('',(95.296718489,101.700102627,22.));
#794=VERTEX_POINT('',#793);
#795=CARTESIAN_POINT('',(95.790549326,102.700102627,21.));
#796=CARTESIAN_POINT('',(95.790549326,102.700102627,21.069778196));
#797=CARTESIAN_POINT('',(95.785892457,102.692881773,21.138013521));
#798=CARTESIAN_POINT('',(95.777022075,102.678902546,21.204818748));
#799=CARTESIAN_POINT('',(95.768151692,102.664923318,21.271623974));
#800=CARTESIAN_POINT('',(95.754853556,102.643828075,21.337430509));
#801=CARTESIAN_POINT('',(95.738461251,102.61714363,21.398792927));
#802=CARTESIAN_POINT('',(95.705676639,102.563774739,21.521517763));
#803=CARTESIAN_POINT('',(95.659733593,102.486667555,21.630717788));
#804=CARTESIAN_POINT('',(95.609313796,102.394229666,21.719852522));
#805=CARTESIAN_POINT('',(95.584103898,102.348010722,21.764419889));
#806=CARTESIAN_POINT('',(95.557391505,102.297251886,21.804636822));
#807=CARTESIAN_POINT('',(95.530644935,102.243995053,21.83915495));
#808=CARTESIAN_POINT('',(95.503898364,102.190738219,21.873673077));
#809=CARTESIAN_POINT('',(95.476928946,102.134669035,21.902887518));
#810=CARTESIAN_POINT('',(95.450002422,102.07565958,21.926799318));
#811=CARTESIAN_POINT('',(95.423075897,102.016650125,21.950711117));
#812=CARTESIAN_POINT('',(95.396291759,101.954844821,21.969113057));
#813=CARTESIAN_POINT('',(95.370682676,101.89220791,21.981374322));
#814=CARTESIAN_POINT('',(95.345073593,101.829571,21.993635587));
#815=CARTESIAN_POINT('',(95.320390344,101.765573493,22.));
#816=CARTESIAN_POINT('',(95.296718489,101.700102627,22.));
#817=B_SPLINE_CURVE_WITH_KNOTS('',3,(#795,#796,#797,#798,#799,#800,#801,#802,#803,#804,#805,#806,#807,#808,#809,#810,#811,#812,#813,#814,#815,#816),.UNSPECIFIED.,.F.,.F.,(4,3,3,3,3,3,3,4),(0.,0.000206039,0.000412078,0.000824156,0.001030195,0.001236234,0.001442273,0.001648312),.UNSPECIFIED.);
#818=EDGE_CURVE('',#786,#794,#817,.T.);
#819=ORIENTED_EDGE('',*,*,#818,.T.);
#820=CARTESIAN_POINT('',(99.998808563,100.,22.));
#821=DIRECTION('',(0.,-0.,1.));
#822=DIRECTION('',(0.,1.,0.));
#823=AXIS2_PLACEMENT_3D('',#820,#821,#822);
#824=CIRCLE('',#823,5.);
#825=EDGE_CURVE('',#794,#769,#824,.T.);
#826=ORIENTED_EDGE('',*,*,#825,.T.);
#827=EDGE_LOOP('',(#775,#784,#792,#819,#826));
#828=FACE_BOUND('',#827,.T.);
#829=ADVANCED_FACE('',(#828),#765,.F.);
#830=CARTESIAN_POINT('',(70.225732811,102.700102627,22.));
#831=DIRECTION('',(0.,-1.,0.));
#832=DIRECTION('',(0.,0.,-1.));
#833=AXIS2_PLACEMENT_3D('',#830,#831,#832);
#834=PLANE('',#833);
#835=CARTESIAN_POINT('',(45.035187962,102.700102627,21.));
#836=VERTEX_POINT('',#835);
#837=CARTESIAN_POINT('',(45.035187962,102.700102627,3.));
#838=VERTEX_POINT('',#837);
#839=CARTESIAN_POINT('',(45.035187962,102.700102627,21.));
#840=DIRECTION('',(0.,0.,-1.));
#841=VECTOR('',#840,18.);
#842=LINE('',#839,#841);
#843=EDGE_CURVE('',#836,#838,#842,.T.);
#844=ORIENTED_EDGE('',*,*,#843,.F.);
#845=CARTESIAN_POINT('',(45.035187962,102.700102627,21.));
#846=DIRECTION('',(1.,-0.,-0.));
#847=VECTOR('',#846,50.755361363);
#848=LINE('',#845,#847);
#849=EDGE_CURVE('',#836,#786,#848,.T.);
#850=ORIENTED_EDGE('',*,*,#849,.T.);
#851=ORIENTED_EDGE('',*,*,#791,.T.);
#852=CARTESIAN_POINT('',(95.790549326,102.700102627,3.));
#853=DIRECTION('',(-1.,0.,0.));
#854=VECTOR('',#853,50.755361363);
#855=LINE('',#852,#854);
#856=EDGE_CURVE('',#777,#838,#855,.T.);
#857=ORIENTED_EDGE('',*,*,#856,.T.);
#858=EDGE_LOOP('',(#844,#850,#851,#857));
#859=FACE_BOUND('',#858,.T.);
#860=ADVANCED_FACE('',(#859),#834,.F.);
#861=CARTESIAN_POINT('',(45.035187962,100.,22.));
#862=DIRECTION('',(-1.,0.,0.));
#863=DIRECTION('',(0.,0.,1.));
#864=AXIS2_PLACEMENT_3D('',#861,#862,#863);
#865=PLANE('',#864);
#866=CARTESIAN_POINT('',(45.035187962,98.999897373,22.));
#867=VERTEX_POINT('',#866);
#868=CARTESIAN_POINT('',(45.035187962,101.700102627,22.));
#869=VERTEX_POINT('',#868);
#870=CARTESIAN_POINT('',(45.035187962,98.999897373,22.));
#871=DIRECTION('',(0.,1.,0.));
#872=VECTOR('',#871,2.700205254);
#873=LINE('',#870,#872);
#874=EDGE_CURVE('',#867,#869,#873,.T.);
#875=ORIENTED_EDGE('',*,*,#874,.T.);
#876=CARTESIAN_POINT('',(45.035187962,101.700102627,21.));
#877=DIRECTION('',(-1.,0.,0.));
#878=DIRECTION('',(0.,0.,1.));
#879=AXIS2_PLACEMENT_3D('',#876,#877,#878);
#880=CIRCLE('',#879,1.);
#881=EDGE_CURVE('',#869,#836,#880,.T.);
#882=ORIENTED_EDGE('',*,*,#881,.T.);
#883=ORIENTED_EDGE('',*,*,#843,.T.);
#884=CARTESIAN_POINT('',(45.035187962,97.999897373,3.));
#885=VERTEX_POINT('',#884);
#886=CARTESIAN_POINT('',(45.035187962,97.999897373,3.));
#887=DIRECTION('',(0.,1.,0.));
#888=VECTOR('',#887,4.700205254);
#889=LINE('',#886,#888);
#890=EDGE_CURVE('',#885,#838,#889,.T.);
#891=ORIENTED_EDGE('',*,*,#890,.F.);
#892=CARTESIAN_POINT('',(45.035187962,97.999897373,21.));
#893=VERTEX_POINT('',#892);
#894=CARTESIAN_POINT('',(45.035187962,97.999897373,21.));
#895=DIRECTION('',(0.,0.,-1.));
#896=VECTOR('',#895,18.);
#897=LINE('',#894,#896);
#898=EDGE_CURVE('',#893,#885,#897,.T.);
#899=ORIENTED_EDGE('',*,*,#898,.F.);
#900=CARTESIAN_POINT('',(45.035187962,98.999897373,21.));
#901=DIRECTION('',(-1.,0.,0.));
#902=DIRECTION('',(0.,0.,1.));
#903=AXIS2_PLACEMENT_3D('',#900,#901,#902);
#904=CIRCLE('',#903,1.);
#905=EDGE_CURVE('',#893,#867,#904,.T.);
#906=ORIENTED_EDGE('',*,*,#905,.T.);
#907=EDGE_LOOP('',(#875,#882,#883,#891,#899,#906));
#908=FACE_BOUND('',#907,.T.);
#909=ADVANCED_FACE('',(#908),#865,.T.);
#910=CARTESIAN_POINT('',(70.225732811,97.999897373,22.));
#911=DIRECTION('',(0.,-1.,0.));
#912=DIRECTION('',(0.,0.,-1.));
#913=AXIS2_PLACEMENT_3D('',#910,#911,#912);
#914=PLANE('',#913);
#915=CARTESIAN_POINT('',(95.416277659,97.999897373,21.));
#916=VERTEX_POINT('',#915);
#917=CARTESIAN_POINT('',(95.416277659,97.999897373,3.));
#918=VERTEX_POINT('',#917);
#919=CARTESIAN_POINT('',(95.416277659,97.999897373,21.));
#920=DIRECTION('',(0.,0.,-1.));
#921=VECTOR('',#920,18.);
#922=LINE('',#919,#921);
#923=EDGE_CURVE('',#916,#918,#922,.T.);
#924=ORIENTED_EDGE('',*,*,#923,.F.);
#925=CARTESIAN_POINT('',(95.416277659,97.999897373,21.));
#926=DIRECTION('',(-1.,0.,0.));
#927=VECTOR('',#926,50.381089697);
#928=LINE('',#925,#927);
#929=EDGE_CURVE('',#916,#893,#928,.T.);
#930=ORIENTED_EDGE('',*,*,#929,.T.);
#931=ORIENTED_EDGE('',*,*,#898,.T.);
#932=CARTESIAN_POINT('',(95.416277659,97.999897373,3.));
#933=DIRECTION('',(-1.,0.,0.));
#934=VECTOR('',#933,50.381089697);
#935=LINE('',#932,#934);
#936=EDGE_CURVE('',#918,#885,#935,.T.);
#937=ORIENTED_EDGE('',*,*,#936,.F.);
#938=EDGE_LOOP('',(#924,#930,#931,#937));
#939=FACE_BOUND('',#938,.T.);
#940=ADVANCED_FACE('',(#939),#914,.T.);
#941=CARTESIAN_POINT('',(-0.001191437,-200.,22.));
#942=DIRECTION('',(0.,0.,1.));
#943=DIRECTION('',(0.,1.,0.));
#944=AXIS2_PLACEMENT_3D('',#941,#942,#943);
#945=PLANE('',#944);
#946=CARTESIAN_POINT('',(95.099850027,98.999897373,22.));
#947=VERTEX_POINT('',#946);
#948=CARTESIAN_POINT('',(99.998808563,100.,22.));
#949=DIRECTION('',(0.,-0.,1.));
#950=DIRECTION('',(0.,1.,0.));
#951=AXIS2_PLACEMENT_3D('',#948,#949,#950);
#952=CIRCLE('',#951,5.);
#953=EDGE_CURVE('',#769,#947,#952,.T.);
#954=ORIENTED_EDGE('',*,*,#953,.F.);
#955=ORIENTED_EDGE('',*,*,#825,.F.);
#956=CARTESIAN_POINT('',(95.296718489,101.700102627,22.));
#957=DIRECTION('',(-1.,0.,0.));
#958=VECTOR('',#957,50.261530527);
#959=LINE('',#956,#958);
#960=EDGE_CURVE('',#794,#869,#959,.T.);
#961=ORIENTED_EDGE('',*,*,#960,.T.);
#962=ORIENTED_EDGE('',*,*,#874,.F.);
#963=CARTESIAN_POINT('',(45.035187962,98.999897373,22.));
#964=DIRECTION('',(1.,-0.,-0.));
#965=VECTOR('',#964,50.064662064);
#966=LINE('',#963,#965);
#967=EDGE_CURVE('',#867,#947,#966,.T.);
#968=ORIENTED_EDGE('',*,*,#967,.T.);
#969=EDGE_LOOP('',(#954,#955,#961,#962,#968));
#970=FACE_BOUND('',#969,.T.);
#971=ADVANCED_FACE('',(#970),#945,.T.);
#972=CARTESIAN_POINT('',(-0.001191437,-200.,3.));
#973=DIRECTION('',(0.,0.,1.));
#974=DIRECTION('',(0.,1.,0.));
#975=AXIS2_PLACEMENT_3D('',#972,#973,#974);
#976=PLANE('',#975);
#977=ORIENTED_EDGE('',*,*,#783,.T.);
#978=CARTESIAN_POINT('',(99.998808563,100.,3.));
#979=DIRECTION('',(0.,-0.,1.));
#980=DIRECTION('',(0.,1.,0.));
#981=AXIS2_PLACEMENT_3D('',#978,#979,#980);
#982=CIRCLE('',#981,5.);
#983=EDGE_CURVE('',#767,#918,#982,.T.);
#984=ORIENTED_EDGE('',*,*,#983,.T.);
#985=ORIENTED_EDGE('',*,*,#936,.T.);
#986=ORIENTED_EDGE('',*,*,#890,.T.);
#987=ORIENTED_EDGE('',*,*,#856,.F.);
#988=EDGE_LOOP('',(#977,#984,#985,#986,#987));
#989=FACE_BOUND('',#988,.T.);
#990=ADVANCED_FACE('',(#989),#976,.F.);
#991=CARTESIAN_POINT('',(-0.001191437,101.700102627,21.));
#992=DIRECTION('',(1.,0.,0.));
#993=DIRECTION('',(0.,0.,-1.));
#994=AXIS2_PLACEMENT_3D('',#991,#992,#993);
#995=CYLINDRICAL_SURFACE('',#994,1.);
#996=ORIENTED_EDGE('',*,*,#818,.F.);
#997=ORIENTED_EDGE('',*,*,#849,.F.);
#998=ORIENTED_EDGE('',*,*,#881,.F.);
#999=ORIENTED_EDGE('',*,*,#960,.F.);
#1000=EDGE_LOOP('',(#996,#997,#998,#999));
#1001=FACE_BOUND('',#1000,.T.);
#1002=ADVANCED_FACE('',(#1001),#995,.T.);
#1003=CARTESIAN_POINT('',(70.225732811,98.999897373,21.));
#1004=DIRECTION('',(-1.,0.,0.));
#1005=DIRECTION('',(0.,0.,1.));
#1006=AXIS2_PLACEMENT_3D('',#1003,#1004,#1005);
#1007=CYLINDRICAL_SURFACE('',#1006,1.);
#1008=CARTESIAN_POINT('',(95.099850027,98.999897373,22.));
#1009=CARTESIAN_POINT('',(95.113364966,98.933695038,22.));
#1010=CARTESIAN_POINT('',(95.127989941,98.868893246,21.993493285));
#1011=CARTESIAN_POINT('',(95.143614277,98.805391926,21.980901438));
#1012=CARTESIAN_POINT('',(95.159238614,98.741890607,21.968309591));
#1013=CARTESIAN_POINT('',(95.17603552,98.679108658,21.949368891));
#1014=CARTESIAN_POINT('',(95.193268705,98.619135532,21.924673142));
#1015=CARTESIAN_POINT('',(95.210501891,98.559162406,21.899977394));
#1016=CARTESIAN_POINT('',(95.228033052,98.502369477,21.869836564));
#1017=CARTESIAN_POINT('',(95.245574394,98.448624825,21.834325223));
#1018=CARTESIAN_POINT('',(95.263115735,98.394880173,21.798813882));
#1019=CARTESIAN_POINT('',(95.28081738,98.343812678,21.757451942));
#1020=CARTESIAN_POINT('',(95.29748659,98.297774485,21.712055791));
#1021=CARTESIAN_POINT('',(95.314155799,98.251736291,21.66665964));
#1022=CARTESIAN_POINT('',(95.329929338,98.210271041,21.617059906));
#1023=CARTESIAN_POINT('',(95.344371791,98.173468221,21.563040724));
#1024=CARTESIAN_POINT('',(95.358814244,98.136665401,21.509021541));
#1025=CARTESIAN_POINT('',(95.371872385,98.104681813,21.450449252));
#1026=CARTESIAN_POINT('',(95.382531686,98.079065905,21.389960776));
#1027=CARTESIAN_POINT('',(95.403850288,98.027834088,21.268983824));
#1028=CARTESIAN_POINT('',(95.416277659,97.999897373,21.135286538));
#1029=CARTESIAN_POINT('',(95.416277659,97.999897373,21.));
#1030=B_SPLINE_CURVE_WITH_KNOTS('',3,(#1008,#1009,#1010,#1011,#1012,#1013,#1014,#1015,#1016,#1017,#1018,#1019,#1020,#1021,#1022,#1023,#1024,#1025,#1026,#1027,#1028,#1029),.UNSPECIFIED.,.F.,.F.,(4,3,3,3,3,3,3,4),(0.,0.000199737,0.000399473,0.00059921,0.000798946,0.000998683,0.001198419,0.001597893),.UNSPECIFIED.);
#1031=EDGE_CURVE('',#947,#916,#1030,.T.);
#1032=ORIENTED_EDGE('',*,*,#1031,.F.);
#1033=ORIENTED_EDGE('',*,*,#967,.F.);
#1034=ORIENTED_EDGE('',*,*,#905,.F.);
#1035=ORIENTED_EDGE('',*,*,#929,.F.);
#1036=EDGE_LOOP('',(#1032,#1033,#1034,#1035));
#1037=FACE_BOUND('',#1036,.T.);
#1038=ADVANCED_FACE('',(#1037),#1007,.T.);
#1039=CARTESIAN_POINT('',(99.998808563,100.,22.));
#1040=DIRECTION('',(0.,0.,-1.));
#1041=DIRECTION('',(-1.,0.,0.));
#1042=AXIS2_PLACEMENT_3D('',#1039,#1040,#1041);
#1043=CYLINDRICAL_SURFACE('',#1042,5.);
#1044=ORIENTED_EDGE('',*,*,#774,.T.);
#1045=ORIENTED_EDGE('',*,*,#953,.T.);
#1046=ORIENTED_EDGE('',*,*,#1031,.T.);
#1047=ORIENTED_EDGE('',*,*,#923,.T.);
#1048=ORIENTED_EDGE('',*,*,#983,.F.);
#1049=EDGE_LOOP('',(#1044,#1045,#1046,#1047,#1048));
#1050=FACE_BOUND('',#1049,.T.);
#1051=ADVANCED_FACE('',(#1050),#1043,.F.);
#1052=CLOSED_SHELL('',(#829,#860,#909,#940,#971,#990,#1002,#1038,#1051));
#1053=MANIFOLD_SOLID_BREP('Body 04',#1052);
#760=STYLED_ITEM('',(#220),#1053);
#1055=CARTESIAN_POINT('',(100.,100.001191437,22.));
#1056=DIRECTION('',(0.,0.,-1.));
#1057=DIRECTION('',(-0.,1.,0.));
#1058=AXIS2_PLACEMENT_3D('',#1055,#1056,#1057);
#1059=CYLINDRICAL_SURFACE('',#1058,5.);
#1060=CARTESIAN_POINT('',(100.,105.001191437,3.));
#1061=VERTEX_POINT('',#1060);
#1062=CARTESIAN_POINT('',(100.,105.001191437,22.));
#1063=VERTEX_POINT('',#1062);
#1064=CARTESIAN_POINT('',(100.,105.001191437,3.));
#1065=DIRECTION('',(-0.,-0.,1.));
#1066=VECTOR('',#1065,19.);
#1067=LINE('',#1064,#1066);
#1068=EDGE_CURVE('',#1061,#1063,#1067,.T.);
#1069=ORIENTED_EDGE('',*,*,#1068,.F.);
#1070=CARTESIAN_POINT('',(102.700102627,104.209450674,3.));
#1071=VERTEX_POINT('',#1070);
#1072=CARTESIAN_POINT('',(100.,100.001191437,3.));
#1073=DIRECTION('',(0.,-0.,1.));
#1074=DIRECTION('',(1.,0.,0.));
#1075=AXIS2_PLACEMENT_3D('',#1072,#1073,#1074);
#1076=CIRCLE('',#1075,5.);
#1077=EDGE_CURVE('',#1071,#1061,#1076,.T.);
#1078=ORIENTED_EDGE('',*,*,#1077,.F.);
#1079=CARTESIAN_POINT('',(102.700102627,104.209450674,21.));
#1080=VERTEX_POINT('',#1079);
#1081=CARTESIAN_POINT('',(102.700102627,104.209450674,21.));
#1082=DIRECTION('',(0.,0.,-1.));
#1083=VECTOR('',#1082,18.);
#1084=LINE('',#1081,#1083);
#1085=EDGE_CURVE('',#1080,#1071,#1084,.T.);
#1086=ORIENTED_EDGE('',*,*,#1085,.F.);
#1087=CARTESIAN_POINT('',(101.700102627,104.703281511,22.));
#1088=VERTEX_POINT('',#1087);
#1089=CARTESIAN_POINT('',(102.700102627,104.209450674,21.));
#1090=CARTESIAN_POINT('',(102.700102627,104.209450674,21.069778196));
#1091=CARTESIAN_POINT('',(102.692881773,104.214107543,21.138013521));
#1092=CARTESIAN_POINT('',(102.678902546,104.222977925,21.204818748));
#1093=CARTESIAN_POINT('',(102.664923318,104.231848308,21.271623974));
#1094=CARTESIAN_POINT('',(102.643828075,104.245146444,21.337430509));
#1095=CARTESIAN_POINT('',(102.61714363,104.261538749,21.398792927));
#1096=CARTESIAN_POINT('',(102.563774739,104.294323361,21.521517763));
#1097=CARTESIAN_POINT('',(102.486667555,104.340266407,21.630717788));
#1098=CARTESIAN_POINT('',(102.394229666,104.390686204,21.719852522));
#1099=CARTESIAN_POINT('',(102.348010722,104.415896102,21.764419889));
#1100=CARTESIAN_POINT('',(102.297251886,104.442608495,21.804636822));
#1101=CARTESIAN_POINT('',(102.243995053,104.469355065,21.83915495));
#1102=CARTESIAN_POINT('',(102.190738219,104.496101636,21.873673077));
#1103=CARTESIAN_POINT('',(102.134669035,104.523071054,21.902887518));
#1104=CARTESIAN_POINT('',(102.07565958,104.549997578,21.926799318));
#1105=CARTESIAN_POINT('',(102.016650125,104.576924103,21.950711117));
#1106=CARTESIAN_POINT('',(101.954844821,104.603708241,21.969113057));
#1107=CARTESIAN_POINT('',(101.89220791,104.629317324,21.981374322));
#1108=CARTESIAN_POINT('',(101.829571,104.654926407,21.993635587));
#1109=CARTESIAN_POINT('',(101.765573493,104.679609656,22.));
#1110=CARTESIAN_POINT('',(101.700102627,104.703281511,22.));
#1111=B_SPLINE_CURVE_WITH_KNOTS('',3,(#1089,#1090,#1091,#1092,#1093,#1094,#1095,#1096,#1097,#1098,#1099,#1100,#1101,#1102,#1103,#1104,#1105,#1106,#1107,#1108,#1109,#1110),.UNSPECIFIED.,.F.,.F.,(4,3,3,3,3,3,3,4),(0.,0.000206039,0.000412078,0.000824156,0.001030195,0.001236234,0.001442273,0.001648312),.UNSPECIFIED.);
#1112=EDGE_CURVE('',#1080,#1088,#1111,.T.);
#1113=ORIENTED_EDGE('',*,*,#1112,.T.);
#1114=CARTESIAN_POINT('',(100.,100.001191437,22.));
#1115=DIRECTION('',(0.,-0.,1.));
#1116=DIRECTION('',(1.,0.,0.));
#1117=AXIS2_PLACEMENT_3D('',#1114,#1115,#1116);
#1118=CIRCLE('',#1117,5.);
#1119=EDGE_CURVE('',#1088,#1063,#1118,.T.);
#1120=ORIENTED_EDGE('',*,*,#1119,.T.);
#1121=EDGE_LOOP('',(#1069,#1078,#1086,#1113,#1120));
#1122=FACE_BOUND('',#1121,.T.);
#1123=ADVANCED_FACE('',(#1122),#1059,.F.);
#1124=CARTESIAN_POINT('',(102.700102627,129.774267189,22.));
#1125=DIRECTION('',(-1.,-0.,0.));
#1126=DIRECTION('',(0.,0.,-1.));
#1127=AXIS2_PLACEMENT_3D('',#1124,#1125,#1126);
#1128=PLANE('',#1127);
#1129=CARTESIAN_POINT('',(102.700102627,154.964812038,21.));
#1130=VERTEX_POINT('',#1129);
#1131=CARTESIAN_POINT('',(102.700102627,154.964812038,3.));
#1132=VERTEX_POINT('',#1131);
#1133=CARTESIAN_POINT('',(102.700102627,154.964812038,21.));
#1134=DIRECTION('',(0.,0.,-1.));
#1135=VECTOR('',#1134,18.);
#1136=LINE('',#1133,#1135);
#1137=EDGE_CURVE('',#1130,#1132,#1136,.T.);
#1138=ORIENTED_EDGE('',*,*,#1137,.F.);
#1139=CARTESIAN_POINT('',(102.700102627,154.964812038,21.));
#1140=DIRECTION('',(0.,-1.,-0.));
#1141=VECTOR('',#1140,50.755361363);
#1142=LINE('',#1139,#1141);
#1143=EDGE_CURVE('',#1130,#1080,#1142,.T.);
#1144=ORIENTED_EDGE('',*,*,#1143,.T.);
#1145=ORIENTED_EDGE('',*,*,#1085,.T.);
#1146=CARTESIAN_POINT('',(102.700102627,104.209450674,3.));
#1147=DIRECTION('',(-0.,1.,0.));
#1148=VECTOR('',#1147,50.755361363);
#1149=LINE('',#1146,#1148);
#1150=EDGE_CURVE('',#1071,#1132,#1149,.T.);
#1151=ORIENTED_EDGE('',*,*,#1150,.T.);
#1152=EDGE_LOOP('',(#1138,#1144,#1145,#1151));
#1153=FACE_BOUND('',#1152,.T.);
#1154=ADVANCED_FACE('',(#1153),#1128,.F.);
#1155=CARTESIAN_POINT('',(100.,154.964812038,22.));
#1156=DIRECTION('',(-0.,1.,0.));
#1157=DIRECTION('',(0.,0.,1.));
#1158=AXIS2_PLACEMENT_3D('',#1155,#1156,#1157);
#1159=PLANE('',#1158);
#1160=CARTESIAN_POINT('',(98.999897373,154.964812038,22.));
#1161=VERTEX_POINT('',#1160);
#1162=CARTESIAN_POINT('',(101.700102627,154.964812038,22.));
#1163=VERTEX_POINT('',#1162);
#1164=CARTESIAN_POINT('',(98.999897373,154.964812038,22.));
#1165=DIRECTION('',(1.,0.,0.));
#1166=VECTOR('',#1165,2.700205254);
#1167=LINE('',#1164,#1166);
#1168=EDGE_CURVE('',#1161,#1163,#1167,.T.);
#1169=ORIENTED_EDGE('',*,*,#1168,.T.);
#1170=CARTESIAN_POINT('',(101.700102627,154.964812038,21.));
#1171=DIRECTION('',(-0.,1.,0.));
#1172=DIRECTION('',(0.,0.,1.));
#1173=AXIS2_PLACEMENT_3D('',#1170,#1171,#1172);
#1174=CIRCLE('',#1173,1.);
#1175=EDGE_CURVE('',#1163,#1130,#1174,.T.);
#1176=ORIENTED_EDGE('',*,*,#1175,.T.);
#1177=ORIENTED_EDGE('',*,*,#1137,.T.);
#1178=CARTESIAN_POINT('',(97.999897373,154.964812038,3.));
#1179=VERTEX_POINT('',#1178);
#1180=CARTESIAN_POINT('',(97.999897373,154.964812038,3.));
#1181=DIRECTION('',(1.,0.,0.));
#1182=VECTOR('',#1181,4.700205254);
#1183=LINE('',#1180,#1182);
#1184=EDGE_CURVE('',#1179,#1132,#1183,.T.);
#1185=ORIENTED_EDGE('',*,*,#1184,.F.);
#1186=CARTESIAN_POINT('',(97.999897373,154.964812038,21.));
#1187=VERTEX_POINT('',#1186);
#1188=CARTESIAN_POINT('',(97.999897373,154.964812038,21.));
#1189=DIRECTION('',(0.,0.,-1.));
#1190=VECTOR('',#1189,18.);
#1191=LINE('',#1188,#1190);
#1192=EDGE_CURVE('',#1187,#1179,#1191,.T.);
#1193=ORIENTED_EDGE('',*,*,#1192,.F.);
#1194=CARTESIAN_POINT('',(98.999897373,154.964812038,21.));
#1195=DIRECTION('',(-0.,1.,0.));
#1196=DIRECTION('',(0.,0.,1.));
#1197=AXIS2_PLACEMENT_3D('',#1194,#1195,#1196);
#1198=CIRCLE('',#1197,1.);
#1199=EDGE_CURVE('',#1187,#1161,#1198,.T.);
#1200=ORIENTED_EDGE('',*,*,#1199,.T.);
#1201=EDGE_LOOP('',(#1169,#1176,#1177,#1185,#1193,#1200));
#1202=FACE_BOUND('',#1201,.T.);
#1203=ADVANCED_FACE('',(#1202),#1159,.T.);
#1204=CARTESIAN_POINT('',(97.999897373,129.774267189,22.));
#1205=DIRECTION('',(-1.,-0.,0.));
#1206=DIRECTION('',(0.,0.,-1.));
#1207=AXIS2_PLACEMENT_3D('',#1204,#1205,#1206);
#1208=PLANE('',#1207);
#1209=CARTESIAN_POINT('',(97.999897373,104.583722341,21.));
#1210=VERTEX_POINT('',#1209);
#1211=CARTESIAN_POINT('',(97.999897373,104.583722341,3.));
#1212=VERTEX_POINT('',#1211);
#1213=CARTESIAN_POINT('',(97.999897373,104.583722341,21.));
#1214=DIRECTION('',(0.,0.,-1.));
#1215=VECTOR('',#1214,18.);
#1216=LINE('',#1213,#1215);
#1217=EDGE_CURVE('',#1210,#1212,#1216,.T.);
#1218=ORIENTED_EDGE('',*,*,#1217,.F.);
#1219=CARTESIAN_POINT('',(97.999897373,104.583722341,21.));
#1220=DIRECTION('',(-0.,1.,0.));
#1221=VECTOR('',#1220,50.381089697);
#1222=LINE('',#1219,#1221);
#1223=EDGE_CURVE('',#1210,#1187,#1222,.T.);
#1224=ORIENTED_EDGE('',*,*,#1223,.T.);
#1225=ORIENTED_EDGE('',*,*,#1192,.T.);
#1226=CARTESIAN_POINT('',(97.999897373,104.583722341,3.));
#1227=DIRECTION('',(-0.,1.,0.));
#1228=VECTOR('',#1227,50.381089697);
#1229=LINE('',#1226,#1228);
#1230=EDGE_CURVE('',#1212,#1179,#1229,.T.);
#1231=ORIENTED_EDGE('',*,*,#1230,.F.);
#1232=EDGE_LOOP('',(#1218,#1224,#1225,#1231));
#1233=FACE_BOUND('',#1232,.T.);
#1234=ADVANCED_FACE('',(#1233),#1208,.T.);
#1235=CARTESIAN_POINT('',(-200.,200.001191437,22.));
#1236=DIRECTION('',(0.,0.,1.));
#1237=DIRECTION('',(1.,0.,0.));
#1238=AXIS2_PLACEMENT_3D('',#1235,#1236,#1237);
#1239=PLANE('',#1238);
#1240=CARTESIAN_POINT('',(98.999897373,104.900149973,22.));
#1241=VERTEX_POINT('',#1240);
#1242=CARTESIAN_POINT('',(100.,100.001191437,22.));
#1243=DIRECTION('',(0.,-0.,1.));
#1244=DIRECTION('',(1.,0.,0.));
#1245=AXIS2_PLACEMENT_3D('',#1242,#1243,#1244);
#1246=CIRCLE('',#1245,5.);
#1247=EDGE_CURVE('',#1063,#1241,#1246,.T.);
#1248=ORIENTED_EDGE('',*,*,#1247,.F.);
#1249=ORIENTED_EDGE('',*,*,#1119,.F.);
#1250=CARTESIAN_POINT('',(101.700102627,104.703281511,22.));
#1251=DIRECTION('',(-0.,1.,0.));
#1252=VECTOR('',#1251,50.261530527);
#1253=LINE('',#1250,#1252);
#1254=EDGE_CURVE('',#1088,#1163,#1253,.T.);
#1255=ORIENTED_EDGE('',*,*,#1254,.T.);
#1256=ORIENTED_EDGE('',*,*,#1168,.F.);
#1257=CARTESIAN_POINT('',(98.999897373,154.964812038,22.));
#1258=DIRECTION('',(0.,-1.,-0.));
#1259=VECTOR('',#1258,50.064662064);
#1260=LINE('',#1257,#1259);
#1261=EDGE_CURVE('',#1161,#1241,#1260,.T.);
#1262=ORIENTED_EDGE('',*,*,#1261,.T.);
#1263=EDGE_LOOP('',(#1248,#1249,#1255,#1256,#1262));
#1264=FACE_BOUND('',#1263,.T.);
#1265=ADVANCED_FACE('',(#1264),#1239,.T.);
#1266=CARTESIAN_POINT('',(-200.,200.001191437,3.));
#1267=DIRECTION('',(0.,0.,1.));
#1268=DIRECTION('',(1.,0.,0.));
#1269=AXIS2_PLACEMENT_3D('',#1266,#1267,#1268);
#1270=PLANE('',#1269);
#1271=ORIENTED_EDGE('',*,*,#1077,.T.);
#1272=CARTESIAN_POINT('',(100.,100.001191437,3.));
#1273=DIRECTION('',(0.,-0.,1.));
#1274=DIRECTION('',(1.,0.,0.));
#1275=AXIS2_PLACEMENT_3D('',#1272,#1273,#1274);
#1276=CIRCLE('',#1275,5.);
#1277=EDGE_CURVE('',#1061,#1212,#1276,.T.);
#1278=ORIENTED_EDGE('',*,*,#1277,.T.);
#1279=ORIENTED_EDGE('',*,*,#1230,.T.);
#1280=ORIENTED_EDGE('',*,*,#1184,.T.);
#1281=ORIENTED_EDGE('',*,*,#1150,.F.);
#1282=EDGE_LOOP('',(#1271,#1278,#1279,#1280,#1281));
#1283=FACE_BOUND('',#1282,.T.);
#1284=ADVANCED_FACE('',(#1283),#1270,.F.);
#1285=CARTESIAN_POINT('',(101.700102627,200.001191437,21.));
#1286=DIRECTION('',(0.,-1.,0.));
#1287=DIRECTION('',(0.,0.,-1.));
#1288=AXIS2_PLACEMENT_3D('',#1285,#1286,#1287);
#1289=CYLINDRICAL_SURFACE('',#1288,1.);
#1290=ORIENTED_EDGE('',*,*,#1112,.F.);
#1291=ORIENTED_EDGE('',*,*,#1143,.F.);
#1292=ORIENTED_EDGE('',*,*,#1175,.F.);
#1293=ORIENTED_EDGE('',*,*,#1254,.F.);
#1294=EDGE_LOOP('',(#1290,#1291,#1292,#1293));
#1295=FACE_BOUND('',#1294,.T.);
#1296=ADVANCED_FACE('',(#1295),#1289,.T.);
#1297=CARTESIAN_POINT('',(98.999897373,129.774267189,21.));
#1298=DIRECTION('',(-0.,1.,0.));
#1299=DIRECTION('',(0.,0.,1.));
#1300=AXIS2_PLACEMENT_3D('',#1297,#1298,#1299);
#1301=CYLINDRICAL_SURFACE('',#1300,1.);
#1302=CARTESIAN_POINT('',(98.999897373,104.900149973,22.));
#1303=CARTESIAN_POINT('',(98.933695038,104.886635034,22.));
#1304=CARTESIAN_POINT('',(98.868893246,104.872010059,21.993493285));
#1305=CARTESIAN_POINT('',(98.805391926,104.856385723,21.980901438));
#1306=CARTESIAN_POINT('',(98.741890607,104.840761386,21.968309591));
#1307=CARTESIAN_POINT('',(98.679108658,104.82396448,21.949368891));
#1308=CARTESIAN_POINT('',(98.619135532,104.806731295,21.924673142));
#1309=CARTESIAN_POINT('',(98.559162406,104.789498109,21.899977394));
#1310=CARTESIAN_POINT('',(98.502369477,104.771966948,21.869836564));
#1311=CARTESIAN_POINT('',(98.448624825,104.754425606,21.834325223));
#1312=CARTESIAN_POINT('',(98.394880173,104.736884265,21.798813882));
#1313=CARTESIAN_POINT('',(98.343812678,104.71918262,21.757451942));
#1314=CARTESIAN_POINT('',(98.297774485,104.70251341,21.712055791));
#1315=CARTESIAN_POINT('',(98.251736291,104.685844201,21.66665964));
#1316=CARTESIAN_POINT('',(98.210271041,104.670070662,21.617059906));
#1317=CARTESIAN_POINT('',(98.173468221,104.655628209,21.563040724));
#1318=CARTESIAN_POINT('',(98.136665401,104.641185756,21.509021541));
#1319=CARTESIAN_POINT('',(98.104681813,104.628127615,21.450449252));
#1320=CARTESIAN_POINT('',(98.079065905,104.617468314,21.389960776));
#1321=CARTESIAN_POINT('',(98.027834088,104.596149712,21.268983824));
#1322=CARTESIAN_POINT('',(97.999897373,104.583722341,21.135286538));
#1323=CARTESIAN_POINT('',(97.999897373,104.583722341,21.));
#1324=B_SPLINE_CURVE_WITH_KNOTS('',3,(#1302,#1303,#1304,#1305,#1306,#1307,#1308,#1309,#1310,#1311,#1312,#1313,#1314,#1315,#1316,#1317,#1318,#1319,#1320,#1321,#1322,#1323),.UNSPECIFIED.,.F.,.F.,(4,3,3,3,3,3,3,4),(0.,0.000199737,0.000399473,0.00059921,0.000798946,0.000998683,0.001198419,0.001597893),.UNSPECIFIED.);
#1325=EDGE_CURVE('',#1241,#1210,#1324,.T.);
#1326=ORIENTED_EDGE('',*,*,#1325,.F.);
#1327=ORIENTED_EDGE('',*,*,#1261,.F.);
#1328=ORIENTED_EDGE('',*,*,#1199,.F.);
#1329=ORIENTED_EDGE('',*,*,#1223,.F.);
#1330=EDGE_LOOP('',(#1326,#1327,#1328,#1329));
#1331=FACE_BOUND('',#1330,.T.);
#1332=ADVANCED_FACE('',(#1331),#1301,.T.);
#1333=CARTESIAN_POINT('',(100.,100.001191437,22.));
#1334=DIRECTION('',(0.,0.,-1.));
#1335=DIRECTION('',(-0.,1.,0.));
#1336=AXIS2_PLACEMENT_3D('',#1333,#1334,#1335);
#1337=CYLINDRICAL_SURFACE('',#1336,5.);
#1338=ORIENTED_EDGE('',*,*,#1068,.T.);
#1339=ORIENTED_EDGE('',*,*,#1247,.T.);
#1340=ORIENTED_EDGE('',*,*,#1325,.T.);
#1341=ORIENTED_EDGE('',*,*,#1217,.T.);
#1342=ORIENTED_EDGE('',*,*,#1277,.F.);
#1343=EDGE_LOOP('',(#1338,#1339,#1340,#1341,#1342));
#1344=FACE_BOUND('',#1343,.T.);
#1345=ADVANCED_FACE('',(#1344),#1337,.F.);
#1346=CLOSED_SHELL('',(#1123,#1154,#1203,#1234,#1265,#1284,#1296,#1332,#1345));
#1347=MANIFOLD_SOLID_BREP('Body 04',#1346);
#1054=STYLED_ITEM('',(#220),#1347);
#1349=CARTESIAN_POINT('',(100.001191437,100.,22.));
#1350=DIRECTION('',(0.,0.,-1.));
#1351=DIRECTION('',(1.,0.,0.));
#1352=AXIS2_PLACEMENT_3D('',#1349,#1350,#1351);
#1353=CYLINDRICAL_SURFACE('',#1352,5.);
#1354=CARTESIAN_POINT('',(105.001191437,100.,3.));
#1355=VERTEX_POINT('',#1354);
#1356=CARTESIAN_POINT('',(105.001191437,100.,22.));
#1357=VERTEX_POINT('',#1356);
#1358=CARTESIAN_POINT('',(105.001191437,100.,3.));
#1359=DIRECTION('',(-0.,-0.,1.));
#1360=VECTOR('',#1359,19.);
#1361=LINE('',#1358,#1360);
#1362=EDGE_CURVE('',#1355,#1357,#1361,.T.);
#1363=ORIENTED_EDGE('',*,*,#1362,.F.);
#1364=CARTESIAN_POINT('',(104.209450674,97.299897373,3.));
#1365=VERTEX_POINT('',#1364);
#1366=CARTESIAN_POINT('',(100.001191437,100.,3.));
#1367=DIRECTION('',(0.,0.,1.));
#1368=DIRECTION('',(0.,-1.,0.));
#1369=AXIS2_PLACEMENT_3D('',#1366,#1367,#1368);
#1370=CIRCLE('',#1369,5.);
#1371=EDGE_CURVE('',#1365,#1355,#1370,.T.);
#1372=ORIENTED_EDGE('',*,*,#1371,.F.);
#1373=CARTESIAN_POINT('',(104.209450674,97.299897373,21.));
#1374=VERTEX_POINT('',#1373);
#1375=CARTESIAN_POINT('',(104.209450674,97.299897373,21.));
#1376=DIRECTION('',(0.,0.,-1.));
#1377=VECTOR('',#1376,18.);
#1378=LINE('',#1375,#1377);
#1379=EDGE_CURVE('',#1374,#1365,#1378,.T.);
#1380=ORIENTED_EDGE('',*,*,#1379,.F.);
#1381=CARTESIAN_POINT('',(104.703281511,98.299897373,22.));
#1382=VERTEX_POINT('',#1381);
#1383=CARTESIAN_POINT('',(104.209450674,97.299897373,21.));
#1384=CARTESIAN_POINT('',(104.209450674,97.299897373,21.069778196));
#1385=CARTESIAN_POINT('',(104.214107543,97.307118227,21.138013521));
#1386=CARTESIAN_POINT('',(104.222977925,97.321097454,21.204818748));
#1387=CARTESIAN_POINT('',(104.231848308,97.335076682,21.271623974));
#1388=CARTESIAN_POINT('',(104.245146444,97.356171925,21.337430509));
#1389=CARTESIAN_POINT('',(104.261538749,97.38285637,21.398792927));
#1390=CARTESIAN_POINT('',(104.294323361,97.436225261,21.521517763));
#1391=CARTESIAN_POINT('',(104.340266407,97.513332445,21.630717788));
#1392=CARTESIAN_POINT('',(104.390686204,97.605770334,21.719852522));
#1393=CARTESIAN_POINT('',(104.415896102,97.651989278,21.764419889));
#1394=CARTESIAN_POINT('',(104.442608495,97.702748114,21.804636822));
#1395=CARTESIAN_POINT('',(104.469355065,97.756004947,21.83915495));
#1396=CARTESIAN_POINT('',(104.496101636,97.809261781,21.873673077));
#1397=CARTESIAN_POINT('',(104.523071054,97.865330965,21.902887518));
#1398=CARTESIAN_POINT('',(104.549997578,97.92434042,21.926799318));
#1399=CARTESIAN_POINT('',(104.576924103,97.983349875,21.950711117));
#1400=CARTESIAN_POINT('',(104.603708241,98.045155179,21.969113057));
#1401=CARTESIAN_POINT('',(104.629317324,98.10779209,21.981374322));
#1402=CARTESIAN_POINT('',(104.654926407,98.170429,21.993635587));
#1403=CARTESIAN_POINT('',(104.679609656,98.234426507,22.));
#1404=CARTESIAN_POINT('',(104.703281511,98.299897373,22.));
#1405=B_SPLINE_CURVE_WITH_KNOTS('',3,(#1383,#1384,#1385,#1386,#1387,#1388,#1389,#1390,#1391,#1392,#1393,#1394,#1395,#1396,#1397,#1398,#1399,#1400,#1401,#1402,#1403,#1404),.UNSPECIFIED.,.F.,.F.,(4,3,3,3,3,3,3,4),(0.,0.000206039,0.000412078,0.000824156,0.001030195,0.001236234,0.001442273,0.001648312),.UNSPECIFIED.);
#1406=EDGE_CURVE('',#1374,#1382,#1405,.T.);
#1407=ORIENTED_EDGE('',*,*,#1406,.T.);
#1408=CARTESIAN_POINT('',(100.001191437,100.,22.));
#1409=DIRECTION('',(0.,0.,1.));
#1410=DIRECTION('',(0.,-1.,0.));
#1411=AXIS2_PLACEMENT_3D('',#1408,#1409,#1410);
#1412=CIRCLE('',#1411,5.);
#1413=EDGE_CURVE('',#1382,#1357,#1412,.T.);
#1414=ORIENTED_EDGE('',*,*,#1413,.T.);
#1415=EDGE_LOOP('',(#1363,#1372,#1380,#1407,#1414));
#1416=FACE_BOUND('',#1415,.T.);
#1417=ADVANCED_FACE('',(#1416),#1353,.F.);
#1418=CARTESIAN_POINT('',(129.774267189,97.299897373,22.));
#1419=DIRECTION('',(-0.,1.,0.));
#1420=DIRECTION('',(0.,0.,-1.));
#1421=AXIS2_PLACEMENT_3D('',#1418,#1419,#1420);
#1422=PLANE('',#1421);
#1423=CARTESIAN_POINT('',(154.964812038,97.299897373,21.));
#1424=VERTEX_POINT('',#1423);
#1425=CARTESIAN_POINT('',(154.964812038,97.299897373,3.));
#1426=VERTEX_POINT('',#1425);
#1427=CARTESIAN_POINT('',(154.964812038,97.299897373,21.));
#1428=DIRECTION('',(0.,0.,-1.));
#1429=VECTOR('',#1428,18.);
#1430=LINE('',#1427,#1429);
#1431=EDGE_CURVE('',#1424,#1426,#1430,.T.);
#1432=ORIENTED_EDGE('',*,*,#1431,.F.);
#1433=CARTESIAN_POINT('',(154.964812038,97.299897373,21.));
#1434=DIRECTION('',(-1.,-0.,-0.));
#1435=VECTOR('',#1434,50.755361363);
#1436=LINE('',#1433,#1435);
#1437=EDGE_CURVE('',#1424,#1374,#1436,.T.);
#1438=ORIENTED_EDGE('',*,*,#1437,.T.);
#1439=ORIENTED_EDGE('',*,*,#1379,.T.);
#1440=CARTESIAN_POINT('',(104.209450674,97.299897373,3.));
#1441=DIRECTION('',(1.,0.,0.));
#1442=VECTOR('',#1441,50.755361363);
#1443=LINE('',#1440,#1442);
#1444=EDGE_CURVE('',#1365,#1426,#1443,.T.);
#1445=ORIENTED_EDGE('',*,*,#1444,.T.);
#1446=EDGE_LOOP('',(#1432,#1438,#1439,#1445));
#1447=FACE_BOUND('',#1446,.T.);
#1448=ADVANCED_FACE('',(#1447),#1422,.F.);
#1449=CARTESIAN_POINT('',(154.964812038,100.,22.));
#1450=DIRECTION('',(1.,0.,0.));
#1451=DIRECTION('',(0.,0.,1.));
#1452=AXIS2_PLACEMENT_3D('',#1449,#1450,#1451);
#1453=PLANE('',#1452);
#1454=CARTESIAN_POINT('',(154.964812038,101.000102627,22.));
#1455=VERTEX_POINT('',#1454);
#1456=CARTESIAN_POINT('',(154.964812038,98.299897373,22.));
#1457=VERTEX_POINT('',#1456);
#1458=CARTESIAN_POINT('',(154.964812038,101.000102627,22.));
#1459=DIRECTION('',(0.,-1.,0.));
#1460=VECTOR('',#1459,2.700205254);
#1461=LINE('',#1458,#1460);
#1462=EDGE_CURVE('',#1455,#1457,#1461,.T.);
#1463=ORIENTED_EDGE('',*,*,#1462,.T.);
#1464=CARTESIAN_POINT('',(154.964812038,98.299897373,21.));
#1465=DIRECTION('',(1.,0.,-0.));
#1466=DIRECTION('',(0.,0.,1.));
#1467=AXIS2_PLACEMENT_3D('',#1464,#1465,#1466);
#1468=CIRCLE('',#1467,1.);
#1469=EDGE_CURVE('',#1457,#1424,#1468,.T.);
#1470=ORIENTED_EDGE('',*,*,#1469,.T.);
#1471=ORIENTED_EDGE('',*,*,#1431,.T.);
#1472=CARTESIAN_POINT('',(154.964812038,102.000102627,3.));
#1473=VERTEX_POINT('',#1472);
#1474=CARTESIAN_POINT('',(154.964812038,102.000102627,3.));
#1475=DIRECTION('',(0.,-1.,0.));
#1476=VECTOR('',#1475,4.700205254);
#1477=LINE('',#1474,#1476);
#1478=EDGE_CURVE('',#1473,#1426,#1477,.T.);
#1479=ORIENTED_EDGE('',*,*,#1478,.F.);
#1480=CARTESIAN_POINT('',(154.964812038,102.000102627,21.));
#1481=VERTEX_POINT('',#1480);
#1482=CARTESIAN_POINT('',(154.964812038,102.000102627,21.));
#1483=DIRECTION('',(0.,0.,-1.));
#1484=VECTOR('',#1483,18.);
#1485=LINE('',#1482,#1484);
#1486=EDGE_CURVE('',#1481,#1473,#1485,.T.);
#1487=ORIENTED_EDGE('',*,*,#1486,.F.);
#1488=CARTESIAN_POINT('',(154.964812038,101.000102627,21.));
#1489=DIRECTION('',(1.,0.,-0.));
#1490=DIRECTION('',(0.,0.,1.));
#1491=AXIS2_PLACEMENT_3D('',#1488,#1489,#1490);
#1492=CIRCLE('',#1491,1.);
#1493=EDGE_CURVE('',#1481,#1455,#1492,.T.);
#1494=ORIENTED_EDGE('',*,*,#1493,.T.);
#1495=EDGE_LOOP('',(#1463,#1470,#1471,#1479,#1487,#1494));
#1496=FACE_BOUND('',#1495,.T.);
#1497=ADVANCED_FACE('',(#1496),#1453,.T.);
#1498=CARTESIAN_POINT('',(129.774267189,102.000102627,22.));
#1499=DIRECTION('',(-0.,1.,0.));
#1500=DIRECTION('',(0.,0.,-1.));
#1501=AXIS2_PLACEMENT_3D('',#1498,#1499,#1500);
#1502=PLANE('',#1501);
#1503=CARTESIAN_POINT('',(104.583722341,102.000102627,21.));
#1504=VERTEX_POINT('',#1503);
#1505=CARTESIAN_POINT('',(104.583722341,102.000102627,3.));
#1506=VERTEX_POINT('',#1505);
#1507=CARTESIAN_POINT('',(104.583722341,102.000102627,21.));
#1508=DIRECTION('',(0.,0.,-1.));
#1509=VECTOR('',#1508,18.);
#1510=LINE('',#1507,#1509);
#1511=EDGE_CURVE('',#1504,#1506,#1510,.T.);
#1512=ORIENTED_EDGE('',*,*,#1511,.F.);
#1513=CARTESIAN_POINT('',(104.583722341,102.000102627,21.));
#1514=DIRECTION('',(1.,0.,0.));
#1515=VECTOR('',#1514,50.381089697);
#1516=LINE('',#1513,#1515);
#1517=EDGE_CURVE('',#1504,#1481,#1516,.T.);
#1518=ORIENTED_EDGE('',*,*,#1517,.T.);
#1519=ORIENTED_EDGE('',*,*,#1486,.T.);
#1520=CARTESIAN_POINT('',(104.583722341,102.000102627,3.));
#1521=DIRECTION('',(1.,0.,0.));
#1522=VECTOR('',#1521,50.381089697);
#1523=LINE('',#1520,#1522);
#1524=EDGE_CURVE('',#1506,#1473,#1523,.T.);
#1525=ORIENTED_EDGE('',*,*,#1524,.F.);
#1526=EDGE_LOOP('',(#1512,#1518,#1519,#1525));
#1527=FACE_BOUND('',#1526,.T.);
#1528=ADVANCED_FACE('',(#1527),#1502,.T.);
#1529=CARTESIAN_POINT('',(200.001191437,400.,22.));
#1530=DIRECTION('',(0.,0.,1.));
#1531=DIRECTION('',(0.,-1.,0.));
#1532=AXIS2_PLACEMENT_3D('',#1529,#1530,#1531);
#1533=PLANE('',#1532);
#1534=CARTESIAN_POINT('',(104.900149973,101.000102627,22.));
#1535=VERTEX_POINT('',#1534);
#1536=CARTESIAN_POINT('',(100.001191437,100.,22.));
#1537=DIRECTION('',(0.,0.,1.));
#1538=DIRECTION('',(0.,-1.,0.));
#1539=AXIS2_PLACEMENT_3D('',#1536,#1537,#1538);
#1540=CIRCLE('',#1539,5.);
#1541=EDGE_CURVE('',#1357,#1535,#1540,.T.);
#1542=ORIENTED_EDGE('',*,*,#1541,.F.);
#1543=ORIENTED_EDGE('',*,*,#1413,.F.);
#1544=CARTESIAN_POINT('',(104.703281511,98.299897373,22.));
#1545=DIRECTION('',(1.,0.,0.));
#1546=VECTOR('',#1545,50.261530527);
#1547=LINE('',#1544,#1546);
#1548=EDGE_CURVE('',#1382,#1457,#1547,.T.);
#1549=ORIENTED_EDGE('',*,*,#1548,.T.);
#1550=ORIENTED_EDGE('',*,*,#1462,.F.);
#1551=CARTESIAN_POINT('',(154.964812038,101.000102627,22.));
#1552=DIRECTION('',(-1.,-0.,-0.));
#1553=VECTOR('',#1552,50.064662064);
#1554=LINE('',#1551,#1553);
#1555=EDGE_CURVE('',#1455,#1535,#1554,.T.);
#1556=ORIENTED_EDGE('',*,*,#1555,.T.);
#1557=EDGE_LOOP('',(#1542,#1543,#1549,#1550,#1556));
#1558=FACE_BOUND('',#1557,.T.);
#1559=ADVANCED_FACE('',(#1558),#1533,.T.);
#1560=CARTESIAN_POINT('',(200.001191437,400.,3.));
#1561=DIRECTION('',(0.,0.,1.));
#1562=DIRECTION('',(0.,-1.,0.));
#1563=AXIS2_PLACEMENT_3D('',#1560,#1561,#1562);
#1564=PLANE('',#1563);
#1565=ORIENTED_EDGE('',*,*,#1371,.T.);
#1566=CARTESIAN_POINT('',(100.001191437,100.,3.));
#1567=DIRECTION('',(0.,0.,1.));
#1568=DIRECTION('',(0.,-1.,0.));
#1569=AXIS2_PLACEMENT_3D('',#1566,#1567,#1568);
#1570=CIRCLE('',#1569,5.);
#1571=EDGE_CURVE('',#1355,#1506,#1570,.T.);
#1572=ORIENTED_EDGE('',*,*,#1571,.T.);
#1573=ORIENTED_EDGE('',*,*,#1524,.T.);
#1574=ORIENTED_EDGE('',*,*,#1478,.T.);
#1575=ORIENTED_EDGE('',*,*,#1444,.F.);
#1576=EDGE_LOOP('',(#1565,#1572,#1573,#1574,#1575));
#1577=FACE_BOUND('',#1576,.T.);
#1578=ADVANCED_FACE('',(#1577),#1564,.F.);
#1579=CARTESIAN_POINT('',(200.001191437,98.299897373,21.));
#1580=DIRECTION('',(-1.,-0.,-0.));
#1581=DIRECTION('',(0.,0.,-1.));
#1582=AXIS2_PLACEMENT_3D('',#1579,#1580,#1581);
#1583=CYLINDRICAL_SURFACE('',#1582,1.);
#1584=ORIENTED_EDGE('',*,*,#1406,.F.);
#1585=ORIENTED_EDGE('',*,*,#1437,.F.);
#1586=ORIENTED_EDGE('',*,*,#1469,.F.);
#1587=ORIENTED_EDGE('',*,*,#1548,.F.);
#1588=EDGE_LOOP('',(#1584,#1585,#1586,#1587));
#1589=FACE_BOUND('',#1588,.T.);
#1590=ADVANCED_FACE('',(#1589),#1583,.T.);
#1591=CARTESIAN_POINT('',(129.774267189,101.000102627,21.));
#1592=DIRECTION('',(1.,0.,-0.));
#1593=DIRECTION('',(0.,0.,1.));
#1594=AXIS2_PLACEMENT_3D('',#1591,#1592,#1593);
#1595=CYLINDRICAL_SURFACE('',#1594,1.);
#1596=CARTESIAN_POINT('',(104.900149973,101.000102627,22.));
#1597=CARTESIAN_POINT('',(104.886635034,101.066304962,22.));
#1598=CARTESIAN_POINT('',(104.872010059,101.131106754,21.993493285));
#1599=CARTESIAN_POINT('',(104.856385723,101.194608074,21.980901438));
#1600=CARTESIAN_POINT('',(104.840761386,101.258109393,21.968309591));
#1601=CARTESIAN_POINT('',(104.82396448,101.320891342,21.949368891));
#1602=CARTESIAN_POINT('',(104.806731295,101.380864468,21.924673142));
#1603=CARTESIAN_POINT('',(104.789498109,101.440837594,21.899977394));
#1604=CARTESIAN_POINT('',(104.771966948,101.497630523,21.869836564));
#1605=CARTESIAN_POINT('',(104.754425606,101.551375175,21.834325223));
#1606=CARTESIAN_POINT('',(104.736884265,101.605119827,21.798813882));
#1607=CARTESIAN_POINT('',(104.71918262,101.656187322,21.757451942));
#1608=CARTESIAN_POINT('',(104.70251341,101.702225515,21.712055791));
#1609=CARTESIAN_POINT('',(104.685844201,101.748263709,21.66665964));
#1610=CARTESIAN_POINT('',(104.670070662,101.789728959,21.617059906));
#1611=CARTESIAN_POINT('',(104.655628209,101.826531779,21.563040724));
#1612=CARTESIAN_POINT('',(104.641185756,101.863334599,21.509021541));
#1613=CARTESIAN_POINT('',(104.628127615,101.895318187,21.450449252));
#1614=CARTESIAN_POINT('',(104.617468314,101.920934095,21.389960776));
#1615=CARTESIAN_POINT('',(104.596149712,101.972165912,21.268983824));
#1616=CARTESIAN_POINT('',(104.583722341,102.000102627,21.135286538));
#1617=CARTESIAN_POINT('',(104.583722341,102.000102627,21.));
#1618=B_SPLINE_CURVE_WITH_KNOTS('',3,(#1596,#1597,#1598,#1599,#1600,#1601,#1602,#1603,#1604,#1605,#1606,#1607,#1608,#1609,#1610,#1611,#1612,#1613,#1614,#1615,#1616,#1617),.UNSPECIFIED.,.F.,.F.,(4,3,3,3,3,3,3,4),(0.,0.000199737,0.000399473,0.00059921,0.000798946,0.000998683,0.001198419,0.001597893),.UNSPECIFIED.);
#1619=EDGE_CURVE('',#1535,#1504,#1618,.T.);
#1620=ORIENTED_EDGE('',*,*,#1619,.F.);
#1621=ORIENTED_EDGE('',*,*,#1555,.F.);
#1622=ORIENTED_EDGE('',*,*,#1493,.F.);
#1623=ORIENTED_EDGE('',*,*,#1517,.F.);
#1624=EDGE_LOOP('',(#1620,#1621,#1622,#1623));
#1625=FACE_BOUND('',#1624,.T.);
#1626=ADVANCED_FACE('',(#1625),#1595,.T.);
#1627=CARTESIAN_POINT('',(100.001191437,100.,22.));
#1628=DIRECTION('',(0.,0.,-1.));
#1629=DIRECTION('',(1.,0.,0.));
#1630=AXIS2_PLACEMENT_3D('',#1627,#1628,#1629);
#1631=CYLINDRICAL_SURFACE('',#1630,5.);
#1632=ORIENTED_EDGE('',*,*,#1362,.T.);
#1633=ORIENTED_EDGE('',*,*,#1541,.T.);
#1634=ORIENTED_EDGE('',*,*,#1619,.T.);
#1635=ORIENTED_EDGE('',*,*,#1511,.T.);
#1636=ORIENTED_EDGE('',*,*,#1571,.F.);
#1637=EDGE_LOOP('',(#1632,#1633,#1634,#1635,#1636));
#1638=FACE_BOUND('',#1637,.T.);
#1639=ADVANCED_FACE('',(#1638),#1631,.F.);
#1640=CLOSED_SHELL('',(#1417,#1448,#1497,#1528,#1559,#1578,#1590,#1626,#1639));
#1641=MANIFOLD_SOLID_BREP('Body 04',#1640);
#1348=STYLED_ITEM('',(#220),#1641);
#447=SHAPE_REPRESENTATION('Circular Pattern 02',(#15),#445);
#448=ADVANCED_BREP_SHAPE_REPRESENTATION('Circular Pattern 02',(#759,#1053,#1347,#1641),#445);
#1649=SHAPE_REPRESENTATION_RELATIONSHIP('','',#447,#448);
#1650=CARTESIAN_POINT('',(0.,0.,0.));
#1651=DIRECTION('',(0.,0.,1.));
#1652=DIRECTION('',(1.,0.,0.));
#1653=AXIS2_PLACEMENT_3D('',#1650,#1651,#1652);
#1655=MAPPED_ITEM('',#1654,#1653);
#1654=REPRESENTATION_MAP(#1653,#447);
#1656=APPLICATION_CONTEXT('Managed model based 3d engineering');
#1657=APPLICATION_PROTOCOL_DEFINITION('international standard','ap242_managed_model_based_3d_engineering',2014,#1656);
#1658=PRODUCT_CONTEXT('',#1656,'mechanical');
#1659=PRODUCT_DEFINITION_CONTEXT('part definition',#1656,'design');
#455=PRODUCT('Circular Pattern 02','Circular Pattern 02','',(#1658));
#1660=PRODUCT_RELATED_PRODUCT_CATEGORY('part','',(#455));
#1661=PRODUCT_DEFINITION_FORMATION_WITH_SPECIFIED_SOURCE('','',#455,.NOT_KNOWN.);
#456=PRODUCT_DEFINITION('design','',#1661,#1659);
#454=PRODUCT_DEFINITION_SHAPE('','',#456);
#1662=SHAPE_DEFINITION_REPRESENTATION(#454,#447);
#446=DRAUGHTING_MODEL('',(#1655),#445);
#1663=(NAMED_UNIT(*)PLANE_ANGLE_UNIT()SI_UNIT($,.RADIAN.));
#1664=PLANE_ANGLE_MEASURE_WITH_UNIT(PLANE_ANGLE_MEASURE(0.0174532925),#1663);
#1665=(CONVERSION_BASED_UNIT('DEGREE',#1664)NAMED_UNIT(#1666)PLANE_ANGLE_UNIT());
#1666=DIMENSIONAL_EXPONENTS(0.,0.,0.,0.,0.,0.,0.);
#1667=(NAMED_UNIT(*)SI_UNIT($,.STERADIAN.)SOLID_ANGLE_UNIT());
#1668=(LENGTH_UNIT()NAMED_UNIT(*)SI_UNIT(.MILLI.,.METRE.));
#1669=UNCERTAINTY_MEASURE_WITH_UNIT(LENGTH_MEASURE(1.000000E-05),#1668,'DISTANCE_ACCURACY_VALUE','Maximum Tolerance applied to model');
#1670=(GEOMETRIC_REPRESENTATION_CONTEXT(3)GLOBAL_UNCERTAINTY_ASSIGNED_CONTEXT((#1669))GLOBAL_UNIT_ASSIGNED_CONTEXT((#1668,#1665,#1667))REPRESENTATION_CONTEXT('','Circular Pattern 01'));
#1682=CARTESIAN_POINT('',(0.,0.,0.));
#1683=DIRECTION('',(0.,0.,1.));
#1684=DIRECTION('',(1.,0.,-0.));
#1685=AXIS2_PLACEMENT_3D('',#1682,#1683,#1684);
#1686=ITEM_DEFINED_TRANSFORMATION('','',#1685,#15);
#1687=(REPRESENTATION_RELATIONSHIP('','',#1672,#16)REPRESENTATION_RELATIONSHIP_WITH_TRANSFORMATION(#1686)SHAPE_REPRESENTATION_RELATIONSHIP());
#1688=NEXT_ASSEMBLY_USAGE_OCCURRENCE('Circular Pattern 01_2','Circular Pattern 01','Circular Pattern 01',#25,#1681,$);
#1689=PRODUCT_DEFINITION_SHAPE('','',#1688);
#1690=CONTEXT_DEPENDENT_SHAPE_REPRESENTATION(#1687,#1689);
#1692=CARTESIAN_POINT('',(165.000595719,286.000595719,22.));
#1693=DIRECTION('',(0.,0.,-1.));
#1694=DIRECTION('',(-0.,1.,0.));
#1695=AXIS2_PLACEMENT_3D('',#1692,#1693,#1694);
#1696=CYLINDRICAL_SURFACE('',#1695,5.);
#1697=CARTESIAN_POINT('',(165.000595719,291.000595719,3.));
#1698=VERTEX_POINT('',#1697);
#1699=CARTESIAN_POINT('',(165.000595719,291.000595719,22.));
#1700=VERTEX_POINT('',#1699);
#1701=CARTESIAN_POINT('',(165.000595719,291.000595719,3.));
#1702=DIRECTION('',(-0.,-0.,1.));
#1703=VECTOR('',#1702,19.);
#1704=LINE('',#1701,#1703);
#1705=EDGE_CURVE('',#1698,#1700,#1704,.T.);
#1706=ORIENTED_EDGE('',*,*,#1705,.F.);
#1707=CARTESIAN_POINT('',(167.700698346,290.208854955,3.));
#1708=VERTEX_POINT('',#1707);
#1709=CARTESIAN_POINT('',(165.000595719,286.000595719,3.));
#1710=DIRECTION('',(0.,-0.,1.));
#1711=DIRECTION('',(1.,0.,0.));
#1712=AXIS2_PLACEMENT_3D('',#1709,#1710,#1711);
#1713=CIRCLE('',#1712,5.);
#1714=EDGE_CURVE('',#1708,#1698,#1713,.T.);
#1715=ORIENTED_EDGE('',*,*,#1714,.F.);
#1716=CARTESIAN_POINT('',(167.700698346,290.208854955,21.));
#1717=VERTEX_POINT('',#1716);
#1718=CARTESIAN_POINT('',(167.700698346,290.208854955,21.));
#1719=DIRECTION('',(0.,0.,-1.));
#1720=VECTOR('',#1719,18.);
#1721=LINE('',#1718,#1720);
#1722=EDGE_CURVE('',#1717,#1708,#1721,.T.);
#1723=ORIENTED_EDGE('',*,*,#1722,.F.);
#1724=CARTESIAN_POINT('',(166.700698346,290.702685792,22.));
#1725=VERTEX_POINT('',#1724);
#1726=CARTESIAN_POINT('',(167.700698346,290.208854955,21.));
#1727=CARTESIAN_POINT('',(167.700698346,290.208854955,21.069778196));
#1728=CARTESIAN_POINT('',(167.693477491,290.213511824,21.138013521));
#1729=CARTESIAN_POINT('',(167.679498264,290.222382207,21.204818748));
#1730=CARTESIAN_POINT('',(167.665519037,290.231252589,21.271623974));
#1731=CARTESIAN_POINT('',(167.644423794,290.244550725,21.337430509));
#1732=CARTESIAN_POINT('',(167.617739349,290.260943031,21.398792927));
#1733=CARTESIAN_POINT('',(167.564370458,290.293727642,21.521517763));
#1734=CARTESIAN_POINT('',(167.487263273,290.339670689,21.630717788));
#1735=CARTESIAN_POINT('',(167.394825385,290.390090485,21.719852522));
#1736=CARTESIAN_POINT('',(167.348606441,290.415300383,21.764419889));
#1737=CARTESIAN_POINT('',(167.297847605,290.442012776,21.804636822));
#1738=CARTESIAN_POINT('',(167.244590771,290.468759346,21.83915495));
#1739=CARTESIAN_POINT('',(167.191333938,290.495505917,21.873673077));
#1740=CARTESIAN_POINT('',(167.135264753,290.522475336,21.902887518));
#1741=CARTESIAN_POINT('',(167.076255298,290.54940186,21.926799318));
#1742=CARTESIAN_POINT('',(167.017245843,290.576328384,21.950711117));
#1743=CARTESIAN_POINT('',(166.95544054,290.603112523,21.969113057));
#1744=CARTESIAN_POINT('',(166.892803629,290.628721606,21.981374322));
#1745=CARTESIAN_POINT('',(166.830166718,290.654330688,21.993635587));
#1746=CARTESIAN_POINT('',(166.766169212,290.679013938,22.));
#1747=CARTESIAN_POINT('',(166.700698346,290.702685792,22.));
#1748=B_SPLINE_CURVE_WITH_KNOTS('',3,(#1726,#1727,#1728,#1729,#1730,#1731,#1732,#1733,#1734,#1735,#1736,#1737,#1738,#1739,#1740,#1741,#1742,#1743,#1744,#1745,#1746,#1747),.UNSPECIFIED.,.F.,.F.,(4,3,3,3,3,3,3,4),(0.,0.000206039,0.000412078,0.000824156,0.001030195,0.001236234,0.001442273,0.001648312),.UNSPECIFIED.);
#1749=EDGE_CURVE('',#1717,#1725,#1748,.T.);
#1750=ORIENTED_EDGE('',*,*,#1749,.T.);
#1751=CARTESIAN_POINT('',(165.000595719,286.000595719,22.));
#1752=DIRECTION('',(0.,-0.,1.));
#1753=DIRECTION('',(1.,0.,0.));
#1754=AXIS2_PLACEMENT_3D('',#1751,#1752,#1753);
#1755=CIRCLE('',#1754,5.);
#1756=EDGE_CURVE('',#1725,#1700,#1755,.T.);
#1757=ORIENTED_EDGE('',*,*,#1756,.T.);
#1758=EDGE_LOOP('',(#1706,#1715,#1723,#1750,#1757));
#1759=FACE_BOUND('',#1758,.T.);
#1760=ADVANCED_FACE('',(#1759),#1696,.F.);
#1761=CARTESIAN_POINT('',(167.700698346,315.773671471,22.));
#1762=DIRECTION('',(-1.,-0.,0.));
#1763=DIRECTION('',(0.,0.,-1.));
#1764=AXIS2_PLACEMENT_3D('',#1761,#1762,#1763);
#1765=PLANE('',#1764);
#1766=CARTESIAN_POINT('',(167.700698346,340.964216319,21.));
#1767=VERTEX_POINT('',#1766);
#1768=CARTESIAN_POINT('',(167.700698346,340.964216319,3.));
#1769=VERTEX_POINT('',#1768);
#1770=CARTESIAN_POINT('',(167.700698346,340.964216319,21.));
#1771=DIRECTION('',(0.,0.,-1.));
#1772=VECTOR('',#1771,18.);
#1773=LINE('',#1770,#1772);
#1774=EDGE_CURVE('',#1767,#1769,#1773,.T.);
#1775=ORIENTED_EDGE('',*,*,#1774,.F.);
#1776=CARTESIAN_POINT('',(167.700698346,340.964216319,21.));
#1777=DIRECTION('',(0.,-1.,-0.));
#1778=VECTOR('',#1777,50.755361363);
#1779=LINE('',#1776,#1778);
#1780=EDGE_CURVE('',#1767,#1717,#1779,.T.);
#1781=ORIENTED_EDGE('',*,*,#1780,.T.);
#1782=ORIENTED_EDGE('',*,*,#1722,.T.);
#1783=CARTESIAN_POINT('',(167.700698346,290.208854955,3.));
#1784=DIRECTION('',(-0.,1.,0.));
#1785=VECTOR('',#1784,50.755361363);
#1786=LINE('',#1783,#1785);
#1787=EDGE_CURVE('',#1708,#1769,#1786,.T.);
#1788=ORIENTED_EDGE('',*,*,#1787,.T.);
#1789=EDGE_LOOP('',(#1775,#1781,#1782,#1788));
#1790=FACE_BOUND('',#1789,.T.);
#1791=ADVANCED_FACE('',(#1790),#1765,.F.);
#1792=CARTESIAN_POINT('',(165.000595719,340.964216319,22.));
#1793=DIRECTION('',(-0.,1.,0.));
#1794=DIRECTION('',(0.,0.,1.));
#1795=AXIS2_PLACEMENT_3D('',#1792,#1793,#1794);
#1796=PLANE('',#1795);
#1797=CARTESIAN_POINT('',(164.000493092,340.964216319,22.));
#1798=VERTEX_POINT('',#1797);
#1799=CARTESIAN_POINT('',(166.700698346,340.964216319,22.));
#1800=VERTEX_POINT('',#1799);
#1801=CARTESIAN_POINT('',(164.000493092,340.964216319,22.));
#1802=DIRECTION('',(1.,0.,0.));
#1803=VECTOR('',#1802,2.700205254);
#1804=LINE('',#1801,#1803);
#1805=EDGE_CURVE('',#1798,#1800,#1804,.T.);
#1806=ORIENTED_EDGE('',*,*,#1805,.T.);
#1807=CARTESIAN_POINT('',(166.700698346,340.964216319,21.));
#1808=DIRECTION('',(-0.,1.,0.));
#1809=DIRECTION('',(0.,0.,1.));
#1810=AXIS2_PLACEMENT_3D('',#1807,#1808,#1809);
#1811=CIRCLE('',#1810,1.);
#1812=EDGE_CURVE('',#1800,#1767,#1811,.T.);
#1813=ORIENTED_EDGE('',*,*,#1812,.T.);
#1814=ORIENTED_EDGE('',*,*,#1774,.T.);
#1815=CARTESIAN_POINT('',(163.000493092,340.964216319,3.));
#1816=VERTEX_POINT('',#1815);
#1817=CARTESIAN_POINT('',(163.000493092,340.964216319,3.));
#1818=DIRECTION('',(1.,0.,0.));
#1819=VECTOR('',#1818,4.700205254);
#1820=LINE('',#1817,#1819);
#1821=EDGE_CURVE('',#1816,#1769,#1820,.T.);
#1822=ORIENTED_EDGE('',*,*,#1821,.F.);
#1823=CARTESIAN_POINT('',(163.000493092,340.964216319,21.));
#1824=VERTEX_POINT('',#1823);
#1825=CARTESIAN_POINT('',(163.000493092,340.964216319,21.));
#1826=DIRECTION('',(0.,0.,-1.));
#1827=VECTOR('',#1826,18.);
#1828=LINE('',#1825,#1827);
#1829=EDGE_CURVE('',#1824,#1816,#1828,.T.);
#1830=ORIENTED_EDGE('',*,*,#1829,.F.);
#1831=CARTESIAN_POINT('',(164.000493092,340.964216319,21.));
#1832=DIRECTION('',(-0.,1.,0.));
#1833=DIRECTION('',(0.,0.,1.));
#1834=AXIS2_PLACEMENT_3D('',#1831,#1832,#1833);
#1835=CIRCLE('',#1834,1.);
#1836=EDGE_CURVE('',#1824,#1798,#1835,.T.);
#1837=ORIENTED_EDGE('',*,*,#1836,.T.);
#1838=EDGE_LOOP('',(#1806,#1813,#1814,#1822,#1830,#1837));
#1839=FACE_BOUND('',#1838,.T.);
#1840=ADVANCED_FACE('',(#1839),#1796,.T.);
#1841=CARTESIAN_POINT('',(163.000493092,315.773671471,22.));
#1842=DIRECTION('',(-1.,-0.,0.));
#1843=DIRECTION('',(0.,0.,-1.));
#1844=AXIS2_PLACEMENT_3D('',#1841,#1842,#1843);
#1845=PLANE('',#1844);
#1846=CARTESIAN_POINT('',(163.000493092,290.583126622,21.));
#1847=VERTEX_POINT('',#1846);
#1848=CARTESIAN_POINT('',(163.000493092,290.583126622,3.));
#1849=VERTEX_POINT('',#1848);
#1850=CARTESIAN_POINT('',(163.000493092,290.583126622,21.));
#1851=DIRECTION('',(0.,0.,-1.));
#1852=VECTOR('',#1851,18.);
#1853=LINE('',#1850,#1852);
#1854=EDGE_CURVE('',#1847,#1849,#1853,.T.);
#1855=ORIENTED_EDGE('',*,*,#1854,.F.);
#1856=CARTESIAN_POINT('',(163.000493092,290.583126622,21.));
#1857=DIRECTION('',(-0.,1.,0.));
#1858=VECTOR('',#1857,50.381089697);
#1859=LINE('',#1856,#1858);
#1860=EDGE_CURVE('',#1847,#1824,#1859,.T.);
#1861=ORIENTED_EDGE('',*,*,#1860,.T.);
#1862=ORIENTED_EDGE('',*,*,#1829,.T.);
#1863=CARTESIAN_POINT('',(163.000493092,290.583126622,3.));
#1864=DIRECTION('',(-0.,1.,0.));
#1865=VECTOR('',#1864,50.381089697);
#1866=LINE('',#1863,#1865);
#1867=EDGE_CURVE('',#1849,#1816,#1866,.T.);
#1868=ORIENTED_EDGE('',*,*,#1867,.F.);
#1869=EDGE_LOOP('',(#1855,#1861,#1862,#1868));
#1870=FACE_BOUND('',#1869,.T.);
#1871=ADVANCED_FACE('',(#1870),#1845,.T.);
#1872=CARTESIAN_POINT('',(-134.999404281,386.000595719,22.));
#1873=DIRECTION('',(0.,0.,1.));
#1874=DIRECTION('',(1.,0.,0.));
#1875=AXIS2_PLACEMENT_3D('',#1872,#1873,#1874);
#1876=PLANE('',#1875);
#1877=CARTESIAN_POINT('',(164.000493092,290.899554254,22.));
#1878=VERTEX_POINT('',#1877);
#1879=CARTESIAN_POINT('',(165.000595719,286.000595719,22.));
#1880=DIRECTION('',(0.,-0.,1.));
#1881=DIRECTION('',(1.,0.,0.));
#1882=AXIS2_PLACEMENT_3D('',#1879,#1880,#1881);
#1883=CIRCLE('',#1882,5.);
#1884=EDGE_CURVE('',#1700,#1878,#1883,.T.);
#1885=ORIENTED_EDGE('',*,*,#1884,.F.);
#1886=ORIENTED_EDGE('',*,*,#1756,.F.);
#1887=CARTESIAN_POINT('',(166.700698346,290.702685792,22.));
#1888=DIRECTION('',(-0.,1.,0.));
#1889=VECTOR('',#1888,50.261530527);
#1890=LINE('',#1887,#1889);
#1891=EDGE_CURVE('',#1725,#1800,#1890,.T.);
#1892=ORIENTED_EDGE('',*,*,#1891,.T.);
#1893=ORIENTED_EDGE('',*,*,#1805,.F.);
#1894=CARTESIAN_POINT('',(164.000493092,340.964216319,22.));
#1895=DIRECTION('',(0.,-1.,-0.));
#1896=VECTOR('',#1895,50.064662064);
#1897=LINE('',#1894,#1896);
#1898=EDGE_CURVE('',#1798,#1878,#1897,.T.);
#1899=ORIENTED_EDGE('',*,*,#1898,.T.);
#1900=EDGE_LOOP('',(#1885,#1886,#1892,#1893,#1899));
#1901=FACE_BOUND('',#1900,.T.);
#1902=ADVANCED_FACE('',(#1901),#1876,.T.);
#1903=CARTESIAN_POINT('',(-134.999404281,386.000595719,3.));
#1904=DIRECTION('',(0.,0.,1.));
#1905=DIRECTION('',(1.,0.,0.));
#1906=AXIS2_PLACEMENT_3D('',#1903,#1904,#1905);
#1907=PLANE('',#1906);
#1908=ORIENTED_EDGE('',*,*,#1714,.T.);
#1909=CARTESIAN_POINT('',(165.000595719,286.000595719,3.));
#1910=DIRECTION('',(0.,-0.,1.));
#1911=DIRECTION('',(1.,0.,0.));
#1912=AXIS2_PLACEMENT_3D('',#1909,#1910,#1911);
#1913=CIRCLE('',#1912,5.);
#1914=EDGE_CURVE('',#1698,#1849,#1913,.T.);
#1915=ORIENTED_EDGE('',*,*,#1914,.T.);
#1916=ORIENTED_EDGE('',*,*,#1867,.T.);
#1917=ORIENTED_EDGE('',*,*,#1821,.T.);
#1918=ORIENTED_EDGE('',*,*,#1787,.F.);
#1919=EDGE_LOOP('',(#1908,#1915,#1916,#1917,#1918));
#1920=FACE_BOUND('',#1919,.T.);
#1921=ADVANCED_FACE('',(#1920),#1907,.F.);
#1922=CARTESIAN_POINT('',(166.700698346,386.000595719,21.));
#1923=DIRECTION('',(0.,-1.,0.));
#1924=DIRECTION('',(0.,0.,-1.));
#1925=AXIS2_PLACEMENT_3D('',#1922,#1923,#1924);
#1926=CYLINDRICAL_SURFACE('',#1925,1.);
#1927=ORIENTED_EDGE('',*,*,#1749,.F.);
#1928=ORIENTED_EDGE('',*,*,#1780,.F.);
#1929=ORIENTED_EDGE('',*,*,#1812,.F.);
#1930=ORIENTED_EDGE('',*,*,#1891,.F.);
#1931=EDGE_LOOP('',(#1927,#1928,#1929,#1930));
#1932=FACE_BOUND('',#1931,.T.);
#1933=ADVANCED_FACE('',(#1932),#1926,.T.);
#1934=CARTESIAN_POINT('',(164.000493092,315.773671471,21.));
#1935=DIRECTION('',(-0.,1.,0.));
#1936=DIRECTION('',(0.,0.,1.));
#1937=AXIS2_PLACEMENT_3D('',#1934,#1935,#1936);
#1938=CYLINDRICAL_SURFACE('',#1937,1.);
#1939=CARTESIAN_POINT('',(164.000493092,290.899554254,22.));
#1940=CARTESIAN_POINT('',(163.934290757,290.886039315,22.));
#1941=CARTESIAN_POINT('',(163.869488964,290.871414341,21.993493285));
#1942=CARTESIAN_POINT('',(163.805987645,290.855790004,21.980901438));
#1943=CARTESIAN_POINT('',(163.742486325,290.840165668,21.968309591));
#1944=CARTESIAN_POINT('',(163.679704376,290.823368761,21.949368891));
#1945=CARTESIAN_POINT('',(163.61973125,290.806135576,21.924673142));
#1946=CARTESIAN_POINT('',(163.559758124,290.788902391,21.899977394));
#1947=CARTESIAN_POINT('',(163.502965195,290.771371229,21.869836564));
#1948=CARTESIAN_POINT('',(163.449220543,290.753829888,21.834325223));
#1949=CARTESIAN_POINT('',(163.395475891,290.736288547,21.798813882));
#1950=CARTESIAN_POINT('',(163.344408396,290.718586901,21.757451942));
#1951=CARTESIAN_POINT('',(163.298370203,290.701917692,21.712055791));
#1952=CARTESIAN_POINT('',(163.25233201,290.685248482,21.66665964));
#1953=CARTESIAN_POINT('',(163.21086676,290.669474943,21.617059906));
#1954=CARTESIAN_POINT('',(163.174063939,290.65503249,21.563040724));
#1955=CARTESIAN_POINT('',(163.137261119,290.640590037,21.509021541));
#1956=CARTESIAN_POINT('',(163.105277531,290.627531896,21.450449252));
#1957=CARTESIAN_POINT('',(163.079661623,290.616872595,21.389960776));
#1958=CARTESIAN_POINT('',(163.028429807,290.595553993,21.268983824));
#1959=CARTESIAN_POINT('',(163.000493092,290.583126622,21.135286538));
#1960=CARTESIAN_POINT('',(163.000493092,290.583126622,21.));
#1961=B_SPLINE_CURVE_WITH_KNOTS('',3,(#1939,#1940,#1941,#1942,#1943,#1944,#1945,#1946,#1947,#1948,#1949,#1950,#1951,#1952,#1953,#1954,#1955,#1956,#1957,#1958,#1959,#1960),.UNSPECIFIED.,.F.,.F.,(4,3,3,3,3,3,3,4),(0.,0.000199737,0.000399473,0.00059921,0.000798946,0.000998683,0.001198419,0.001597893),.UNSPECIFIED.);
#1962=EDGE_CURVE('',#1878,#1847,#1961,.T.);
#1963=ORIENTED_EDGE('',*,*,#1962,.F.);
#1964=ORIENTED_EDGE('',*,*,#1898,.F.);
#1965=ORIENTED_EDGE('',*,*,#1836,.F.);
#1966=ORIENTED_EDGE('',*,*,#1860,.F.);
#1967=EDGE_LOOP('',(#1963,#1964,#1965,#1966));
#1968=FACE_BOUND('',#1967,.T.);
#1969=ADVANCED_FACE('',(#1968),#1938,.T.);
#1970=CARTESIAN_POINT('',(165.000595719,286.000595719,22.));
#1971=DIRECTION('',(0.,0.,-1.));
#1972=DIRECTION('',(-0.,1.,0.));
#1973=AXIS2_PLACEMENT_3D('',#1970,#1971,#1972);
#1974=CYLINDRICAL_SURFACE('',#1973,5.);
#1975=ORIENTED_EDGE('',*,*,#1705,.T.);
#1976=ORIENTED_EDGE('',*,*,#1884,.T.);
#1977=ORIENTED_EDGE('',*,*,#1962,.T.);
#1978=ORIENTED_EDGE('',*,*,#1854,.T.);
#1979=ORIENTED_EDGE('',*,*,#1914,.F.);
#1980=EDGE_LOOP('',(#1975,#1976,#1977,#1978,#1979));
#1981=FACE_BOUND('',#1980,.T.);
#1982=ADVANCED_FACE('',(#1981),#1974,.F.);
#1983=CLOSED_SHELL('',(#1760,#1791,#1840,#1871,#1902,#1921,#1933,#1969,#1982));
#1984=MANIFOLD_SOLID_BREP('Body 04',#1983);
#1691=STYLED_ITEM('',(#220),#1984);
#1672=SHAPE_REPRESENTATION('Circular Pattern 01',(#15),#1670);
#1673=ADVANCED_BREP_SHAPE_REPRESENTATION('Circular Pattern 01',(#1984),#1670);
#1992=SHAPE_REPRESENTATION_RELATIONSHIP('','',#1672,#1673);
#1993=CARTESIAN_POINT('',(0.,0.,0.));
#1994=DIRECTION('',(0.,0.,1.));
#1995=DIRECTION('',(1.,0.,0.));
#1996=AXIS2_PLACEMENT_3D('',#1993,#1994,#1995);
#1998=MAPPED_ITEM('',#1997,#1996);
#1997=REPRESENTATION_MAP(#1996,#1672);
#1680=PRODUCT('Circular Pattern 01','Circular Pattern 01','',(#1658));
#1999=PRODUCT_RELATED_PRODUCT_CATEGORY('part','',(#1680));
#2000=PRODUCT_DEFINITION_FORMATION_WITH_SPECIFIED_SOURCE('','',#1680,.NOT_KNOWN.);
#1681=PRODUCT_DEFINITION('design','',#2000,#1659);
#1679=PRODUCT_DEFINITION_SHAPE('','',#1681);
#2001=SHAPE_DEFINITION_REPRESENTATION(#1679,#1672);
#1671=DRAUGHTING_MODEL('',(#1998),#1670);
#16=SHAPE_REPRESENTATION('root',(#15,#460,#1685),#10);
#17=ADVANCED_BREP_SHAPE_REPRESENTATION('root',(#213,#353,#437),#10);
#2009=SHAPE_REPRESENTATION_RELATIONSHIP('','',#16,#17);
#2010=CARTESIAN_POINT('',(0.,0.,0.));
#2011=DIRECTION('',(0.,0.,1.));
#2012=DIRECTION('',(1.,0.,0.));
#2013=AXIS2_PLACEMENT_3D('',#2010,#2011,#2012);
#2015=MAPPED_ITEM('',#2014,#2013);
#2014=REPRESENTATION_MAP(#2013,#16);
#24=PRODUCT('root','root','',(#1658));
#2016=PRODUCT_RELATED_PRODUCT_CATEGORY('part','',(#24));
#2017=PRODUCT_DEFINITION_FORMATION_WITH_SPECIFIED_SOURCE('','',#24,.NOT_KNOWN.);
#25=PRODUCT_DEFINITION('design','',#2017,#1659);
#23=PRODUCT_DEFINITION_SHAPE('','',#25);
#2018=SHAPE_DEFINITION_REPRESENTATION(#23,#16);
#11=DRAUGHTING_MODEL('',(#2015),#10);
#2019=DESCRIPTIVE_REPRESENTATION_ITEM('KEY','/Users/khilli/Library/Containers/com.shapr3d.shapr/Data/tmp/E745F5BE-647A-4C7B-9A03-782F3939BEA3.tmp');
#2020=PROPERTY_DEFINITION('KEY','',#25);
#2021=REPRESENTATION('',(#2019),#10);
#2022=PROPERTY_DEFINITION_REPRESENTATION(#2020,#2021);
#2023=GENERAL_PROPERTY('','KEY','');
#2024=GENERAL_PROPERTY_ASSOCIATION('','',#2023,#2020);
#1=MECHANICAL_DESIGN_GEOMETRIC_PRESENTATION_REPRESENTATION('',(#26,#221,#354,#466,#760,#1054,#1348,#1691),#10);
ENDSEC;
END-ISO-10303-21;
